<svg xmlns="http://www.w3.org/2000/svg" xmlns:xlink="http://www.w3.org/1999/xlink" width="500" zoomAndPan="magnify" viewBox="0 0 375 374.999991" height="500" preserveAspectRatio="xMidYMid meet" version="1.0"><defs><clipPath id="73d67fc396"><path d="M 108 102.339844 L 196 102.339844 L 196 298 L 108 298 Z M 108 102.339844 " clip-rule="nonzero"/></clipPath><clipPath id="ee3d235d8e"><path d="M 279.289062 163.503906 L 325.507812 163.503906 L 325.507812 302.570312 L 279.289062 302.570312 Z M 279.289062 163.503906 " clip-rule="nonzero"/></clipPath><clipPath id="126be9976c"><path d="M 206 102.339844 L 287 102.339844 L 287 183 L 206 183 Z M 206 102.339844 " clip-rule="nonzero"/></clipPath><clipPath id="92f6065e76"><path d="M 9 216.511719 L 365 216.511719 L 365 337.261719 L 9 337.261719 Z M 9 216.511719 " clip-rule="nonzero"/></clipPath><clipPath id="58ecb641a3"><path d="M 55 62 L 167 62 L 167 150 L 55 150 Z M 55 62 " clip-rule="nonzero"/></clipPath><clipPath id="06905b46ed"><path d="M 50.441406 86.433594 L 161.410156 47.054688 L 186.492188 117.738281 L 75.519531 157.113281 Z M 50.441406 86.433594 " clip-rule="nonzero"/></clipPath><clipPath id="271a9540f0"><path d="M 50.441406 86.433594 L 161.410156 47.054688 L 186.492188 117.738281 L 75.519531 157.113281 Z M 50.441406 86.433594 " clip-rule="nonzero"/></clipPath><clipPath id="adb8bc973f"><path d="M 90 86 L 153 86 L 153 129 L 90 129 Z M 90 86 " clip-rule="nonzero"/></clipPath><clipPath id="c591aabbe9"><path d="M 50.441406 86.433594 L 161.410156 47.054688 L 186.492188 117.738281 L 75.519531 157.113281 Z M 50.441406 86.433594 " clip-rule="nonzero"/></clipPath><clipPath id="c818da03a5"><path d="M 50.441406 86.433594 L 161.410156 47.054688 L 186.492188 117.738281 L 75.519531 157.113281 Z M 50.441406 86.433594 " clip-rule="nonzero"/></clipPath><clipPath id="4563de4a33"><path d="M 241 55 L 346 55 L 346 154 L 241 154 Z M 241 55 " clip-rule="nonzero"/></clipPath><clipPath id="604c712d05"><path d="M 250.28125 41.382812 L 353.558594 97.945312 L 317.53125 163.726562 L 214.257812 107.164062 Z M 250.28125 41.382812 " clip-rule="nonzero"/></clipPath><clipPath id="1ce2daecee"><path d="M 353.25 97.777344 L 249.972656 41.214844 L 213.949219 106.996094 L 317.222656 163.558594 Z M 353.25 97.777344 " clip-rule="nonzero"/></clipPath><clipPath id="19fa944e4a"><path d="M 249 82 L 310 82 L 310 131 L 249 131 Z M 249 82 " clip-rule="nonzero"/></clipPath><clipPath id="8e629a9ac5"><path d="M 250.28125 41.382812 L 353.558594 97.945312 L 317.53125 163.726562 L 214.257812 107.164062 Z M 250.28125 41.382812 " clip-rule="nonzero"/></clipPath><clipPath id="d7b342b3ea"><path d="M 353.25 97.777344 L 249.972656 41.214844 L 213.949219 106.996094 L 317.222656 163.558594 Z M 353.25 97.777344 " clip-rule="nonzero"/></clipPath></defs><g clip-path="url(#73d67fc396)"><path fill="#61b1e6" d="M 147.925781 177.558594 C 128.828125 177.558594 113.289062 161.824219 113.289062 142.484375 C 113.289062 123.140625 128.828125 107.40625 147.925781 107.40625 C 167.023438 107.40625 182.5625 123.140625 182.5625 142.484375 C 182.5625 161.824219 167.023438 177.558594 147.925781 177.558594 Z M 180.652344 167.695312 C 180.199219 167.367188 179.671875 167.21875 179.152344 167.226562 C 184.449219 160.402344 187.621094 151.8125 187.621094 142.484375 C 187.621094 120.34375 169.816406 102.335938 147.925781 102.335938 C 126.035156 102.335938 108.230469 120.34375 108.230469 142.484375 C 108.230469 164.617188 126.035156 182.628906 147.925781 182.628906 C 159.234375 182.628906 169.445312 177.8125 176.683594 170.113281 C 176.777344 170.773438 177.128906 171.394531 177.714844 171.816406 C 185.632812 177.488281 190.175781 185.675781 190.175781 194.285156 L 190.175781 294.652344 C 190.175781 296.050781 191.308594 297.1875 192.707031 297.1875 C 194.101562 297.1875 195.234375 296.050781 195.234375 294.652344 L 195.234375 194.285156 C 195.234375 184.015625 189.921875 174.324219 180.652344 167.695312 " fill-opacity="1" fill-rule="nonzero"/></g><path fill="#61b1e6" d="M 97.300781 246.617188 C 96.015625 246.425781 94.667969 247.453125 94.515625 248.859375 C 93.308594 259.878906 92.933594 271.632812 93.402344 283.808594 C 93.636719 289.546875 89.195312 294.410156 83.492188 294.652344 C 80.070312 294.871094 77.578125 294.160156 76.035156 292.742188 C 74.773438 291.582031 74.105469 289.847656 74.011719 287.457031 C 72.160156 240.320312 82.84375 210.503906 92.125 193.796875 C 92.804688 192.574219 92.367188 191.027344 91.148438 190.351562 C 89.941406 189.664062 88.390625 190.101562 87.710938 191.328125 C 78.105469 208.601562 67.0625 239.339844 68.949219 287.660156 C 69.113281 291.421875 70.34375 294.390625 72.613281 296.480469 C 74.972656 298.644531 78.324219 299.742188 82.578125 299.742188 C 82.945312 299.742188 83.324219 299.730469 83.710938 299.722656 C 92.191406 299.355469 98.8125 292.121094 98.460938 283.609375 C 98 271.6875 98.363281 260.179688 99.539062 249.40625 C 99.695312 248.019531 98.691406 246.765625 97.300781 246.617188 " fill-opacity="1" fill-rule="nonzero"/><path fill="#61b1e6" d="M 103.136719 223.6875 C 101.742188 223.6875 100.609375 224.824219 100.609375 226.222656 L 100.609375 294.652344 C 100.609375 296.050781 101.742188 297.1875 103.136719 297.1875 C 104.535156 297.1875 105.667969 296.050781 105.667969 294.652344 L 105.667969 226.222656 C 105.667969 224.824219 104.535156 223.6875 103.136719 223.6875 " fill-opacity="1" fill-rule="nonzero"/><path fill="#61b1e6" d="M 201.726562 189.417969 L 198.117188 189.417969 C 196.722656 189.417969 195.585938 190.554688 195.585938 191.953125 C 195.585938 193.351562 196.722656 194.488281 198.117188 194.488281 L 199.097656 194.488281 L 199.097656 294.652344 C 199.097656 296.050781 200.230469 297.1875 201.625 297.1875 C 203.019531 297.1875 204.15625 296.050781 204.15625 294.652344 L 204.15625 194.285156 C 204.15625 193.601562 204.144531 192.921875 204.234375 192.316406 C 204.339844 191.589844 204.125 190.851562 203.636719 190.292969 C 203.160156 189.742188 202.460938 189.417969 201.726562 189.417969 " fill-opacity="1" fill-rule="nonzero"/><g clip-path="url(#ee3d235d8e)"><path fill="#61b1e6" d="M 292.054688 171.324219 C 291.980469 171.246094 284.550781 163.566406 282.179688 163.566406 C 280.78125 163.566406 279.648438 164.707031 279.648438 166.105469 C 279.648438 167.070312 280.1875 167.914062 280.988281 168.339844 C 282.433594 169.28125 323.792969 197.679688 320.222656 287.445312 C 320.109375 290.269531 318.929688 292.867188 316.917969 294.753906 C 314.910156 296.640625 312.308594 297.605469 309.542969 297.492188 C 304.074219 297.257812 301.28125 288.929688 301.441406 283.296875 C 301.910156 271.402344 301.597656 260.0625 300.523438 249.582031 C 300.378906 248.191406 299.125 247.210938 297.746094 247.320312 C 296.355469 247.464844 295.347656 248.710938 295.488281 250.105469 C 296.542969 260.347656 296.84375 271.445312 296.378906 283.121094 C 296.132812 292.195312 301.003906 302.203125 309.324219 302.558594 C 309.546875 302.566406 309.769531 302.570312 309.988281 302.570312 C 313.867188 302.570312 317.53125 301.125 320.375 298.449219 C 323.367188 295.648438 325.109375 291.8125 325.285156 287.65625 C 327.988281 219.398438 305.628906 185.476562 292.054688 171.324219 " fill-opacity="1" fill-rule="nonzero"/></g><path fill="#61b1e6" d="M 291.097656 200.875 C 289.699219 200.875 288.566406 202.011719 288.566406 203.410156 L 288.566406 294.652344 C 288.566406 296.050781 289.699219 297.1875 291.097656 297.1875 C 292.492188 297.1875 293.625 296.050781 293.625 294.652344 L 293.625 203.410156 C 293.625 202.011719 292.492188 200.875 291.097656 200.875 " fill-opacity="1" fill-rule="nonzero"/><path fill="#61b1e6" d="M 204.332031 163.367188 L 186.996094 163.367188 C 185.601562 163.367188 184.46875 164.503906 184.46875 165.902344 C 184.46875 167.300781 185.601562 168.4375 186.996094 168.4375 L 204.332031 168.4375 C 205.726562 168.4375 206.863281 167.300781 206.863281 165.902344 C 206.863281 164.503906 205.726562 163.367188 204.332031 163.367188 " fill-opacity="1" fill-rule="nonzero"/><g clip-path="url(#126be9976c)"><path fill="#61b1e6" d="M 246.308594 177.558594 C 227.210938 177.558594 211.671875 161.824219 211.671875 142.484375 C 211.671875 123.140625 227.210938 107.40625 246.308594 107.40625 C 265.414062 107.40625 280.949219 123.140625 280.949219 142.484375 C 280.949219 161.824219 265.414062 177.558594 246.308594 177.558594 Z M 246.308594 102.335938 C 224.417969 102.335938 206.613281 120.34375 206.613281 142.484375 C 206.613281 164.617188 224.417969 182.628906 246.308594 182.628906 C 268.199219 182.628906 286.011719 164.617188 286.011719 142.484375 C 286.011719 120.34375 268.199219 102.335938 246.308594 102.335938 " fill-opacity="1" fill-rule="nonzero"/></g><path fill="#61b1e6" d="M 105.441406 189.117188 C 99.769531 189.117188 95.15625 184.386719 95.15625 178.574219 C 95.15625 172.820312 99.769531 168.132812 105.441406 168.132812 C 111.175781 168.132812 115.84375 172.820312 115.84375 178.574219 C 115.84375 184.386719 111.175781 189.117188 105.441406 189.117188 Z M 105.441406 163.0625 C 96.980469 163.0625 90.09375 170.023438 90.09375 178.574219 C 90.09375 187.179688 96.980469 194.183594 105.441406 194.183594 C 113.96875 194.183594 120.902344 187.179688 120.902344 178.574219 C 120.902344 170.023438 113.96875 163.0625 105.441406 163.0625 " fill-opacity="1" fill-rule="nonzero"/><g clip-path="url(#92f6065e76)"><path fill="#ffffff" d="M 349.863281 219.476562 C 345.835938 217.929688 341.148438 217.257812 334.214844 217.257812 C 326.617188 217.257812 320.488281 218.632812 315.457031 221.441406 C 314.566406 221.9375 313.703125 222.480469 312.871094 223.070312 C 312.621094 222.878906 312.363281 222.691406 312.101562 222.507812 C 308.625 220.125 304.800781 218.621094 300.628906 218 C 298.035156 217.609375 295.425781 217.410156 292.804688 217.394531 C 286.816406 217.300781 281.652344 216.683594 275.890625 218.5625 C 275.003906 218.851562 269.375 222.273438 269.042969 222.117188 C 267.476562 221.492188 265.871094 220.871094 264.226562 220.347656 C 261.515625 219.476562 258.753906 218.804688 255.949219 218.332031 L 255.785156 218.332031 C 252.878906 217.914062 249.957031 217.679688 247.023438 217.621094 C 235.390625 217.332031 223.683594 218.042969 211.972656 217.394531 C 203.8125 216.902344 194.558594 216.699219 187.242188 220.964844 L 186.699219 221.292969 C 184.363281 219.964844 181.890625 218.96875 179.289062 218.300781 C 176.683594 217.632812 174.039062 217.316406 171.351562 217.351562 C 170.175781 217.351562 168.953125 217.402344 167.703125 217.507812 C 166.636719 217.601562 165.527344 217.671875 164.402344 217.722656 C 161.980469 217.820312 159.589844 218.148438 157.234375 218.703125 C 154.1875 217.734375 151.066406 217.261719 147.871094 217.28125 L 147.730469 217.28125 C 139.148438 217.34375 130.613281 217.386719 122.125 217.414062 C 113.636719 217.445312 105.03125 217.488281 96.308594 217.542969 C 93.625 217.535156 90.984375 217.855469 88.382812 218.511719 C 85.882812 219.148438 83.554688 220.175781 81.398438 221.589844 C 80.496094 221.121094 79.578125 220.667969 78.640625 220.246094 C 73.496094 217.949219 68.105469 216.734375 62.472656 216.613281 C 61.527344 216.546875 60.574219 216.511719 59.628906 216.511719 C 56.007812 216.507812 52.449219 216.984375 48.957031 217.933594 C 45.816406 218.792969 42.734375 219.828125 39.710938 221.042969 C 36.230469 222.429688 33.011719 224.273438 30.050781 226.570312 C 27.09375 228.867188 24.507812 231.53125 22.300781 234.558594 C 18.40625 239.859375 15.765625 245.726562 14.378906 252.160156 C 12.96875 258.601562 12.96875 265.039062 14.378906 271.476562 C 14.867188 273.761719 15.558594 275.980469 16.453125 278.136719 C 15.359375 279.300781 14.371094 280.550781 13.488281 281.882812 C 12.121094 283.953125 11.078125 286.171875 10.363281 288.546875 C 9.652344 290.917969 9.292969 293.34375 9.292969 295.824219 C 9.316406 299.082031 9.832031 302.257812 10.84375 305.355469 L 10.914062 305.589844 L 10.992188 305.824219 C 13.058594 312.191406 16.355469 317.84375 20.886719 322.773438 C 24.929688 327.097656 29.648438 330.480469 35.039062 332.921875 C 39.820312 335.082031 44.8125 336.453125 50.027344 337.042969 C 52.449219 337.320312 54.882812 337.457031 57.324219 337.460938 C 59.308594 337.460938 61.3125 337.363281 63.277344 337.167969 C 66.878906 336.859375 70.4375 336.261719 73.945312 335.382812 C 78.277344 334.289062 82.347656 332.566406 86.148438 330.21875 C 89.621094 328.054688 92.703125 325.429688 95.394531 322.355469 C 95.90625 323.578125 96.515625 324.753906 97.222656 325.875 C 98.546875 327.964844 100.175781 329.785156 102.101562 331.335938 C 104.03125 332.886719 106.15625 334.085938 108.484375 334.929688 L 109.246094 335.214844 L 110.035156 335.433594 C 113.964844 336.554688 117.972656 337.121094 122.0625 337.125 L 122.628906 337.125 C 127.207031 337.0625 131.644531 336.242188 135.945312 334.671875 C 139 333.613281 141.773438 332.046875 144.261719 329.976562 C 146.746094 327.90625 148.792969 325.464844 150.390625 322.652344 C 152.019531 324.429688 153.796875 326.03125 155.730469 327.46875 C 159.429688 330.207031 163.441406 332.351562 167.773438 333.90625 C 171.925781 335.386719 176.191406 336.351562 180.578125 336.800781 C 182.824219 337.035156 185.074219 337.152344 187.332031 337.15625 C 189.132812 337.15625 190.953125 337.078125 192.738281 336.921875 L 193.03125 336.921875 C 198.503906 336.421875 203.75 335.066406 208.777344 332.84375 C 210.820312 334.28125 213.035156 335.371094 215.417969 336.113281 C 217.800781 336.855469 220.242188 337.214844 222.738281 337.191406 L 243.203125 337.191406 C 245.75 337.175781 248.289062 337.019531 250.820312 336.722656 C 253.472656 336.429688 256.203125 336.011719 258.929688 335.476562 C 261.714844 334.933594 264.464844 334.25 267.179688 333.421875 C 269.15625 332.820312 271.078125 332.070312 272.941406 331.171875 C 276.234375 334.0625 280.761719 336.253906 286.738281 336.964844 L 287.074219 337.007812 L 287.414062 337.007812 C 288.351562 337.085938 289.339844 337.121094 290.535156 337.121094 C 291.320312 337.121094 292.265625 337.121094 293.382812 337.0625 C 294.804688 337.011719 296.84375 336.992188 299.417969 336.992188 C 303.242188 337.082031 306.996094 336.605469 310.679688 335.570312 C 312.28125 335.078125 313.816406 334.425781 315.285156 333.613281 C 316.75 332.800781 318.117188 331.847656 319.386719 330.75 C 320.65625 329.652344 321.796875 328.4375 322.8125 327.105469 C 323.828125 325.769531 324.695312 324.34375 325.417969 322.832031 C 325.898438 322.011719 326.453125 321.050781 327.109375 319.894531 C 327.957031 318.386719 328.855469 316.800781 329.804688 315.140625 C 330.707031 313.570312 331.609375 312.027344 332.5 310.539062 C 333.480469 308.898438 334.226562 307.609375 334.8125 306.542969 L 344.152344 291.121094 L 344.507812 290.410156 C 345.957031 287.527344 347.292969 284.84375 348.511719 282.359375 C 349.753906 279.8125 350.972656 277.269531 352.125 274.792969 C 353.339844 272.167969 354.511719 269.507812 355.617188 266.875 C 356.71875 264.246094 357.8125 261.519531 358.9375 258.617188 L 359 258.441406 C 359.316406 257.558594 359.710938 256.710938 360.183594 255.902344 C 362.769531 251.914062 364.320312 247.554688 364.828125 242.828125 C 365.738281 232.652344 359.71875 223.277344 349.863281 219.476562 Z M 349.863281 219.476562 " fill-opacity="1" fill-rule="nonzero"/></g><path fill="#61b1e6" d="M 79.558594 276.257812 C 76.925781 273.933594 73.230469 272.097656 68.476562 270.753906 C 66.335938 270.148438 64.296875 269.296875 62.359375 268.207031 C 60.464844 267.121094 58.734375 265.820312 57.167969 264.300781 C 56.761719 263.859375 56.46875 263.355469 56.285156 262.785156 C 56.042969 262.117188 55.886719 261.429688 55.820312 260.722656 C 55.75 260.023438 55.785156 259.328125 55.921875 258.640625 C 56.011719 258.058594 56.246094 257.546875 56.632812 257.105469 C 57.0625 256.613281 57.589844 256.273438 58.214844 256.078125 C 58.835938 255.886719 59.464844 255.867188 60.097656 256.03125 C 61.386719 256.316406 62.527344 256.894531 63.519531 257.765625 C 64.082031 258.21875 64.554688 258.753906 64.941406 259.367188 C 65.316406 259.964844 65.652344 260.589844 66.023438 261.230469 C 66.394531 261.902344 66.898438 262.464844 67.523438 262.914062 C 68.089844 263.351562 68.726562 263.609375 69.4375 263.691406 C 70.773438 263.746094 71.9375 263.773438 72.921875 263.773438 C 73.902344 263.773438 74.8125 263.773438 75.660156 263.691406 C 76.503906 263.605469 77.308594 263.535156 78.085938 263.398438 L 80.746094 262.941406 C 82.167969 262.707031 83.035156 262.230469 83.382812 261.554688 C 83.78125 260.683594 84.039062 259.769531 84.160156 258.816406 C 84.375 256.003906 83.898438 253.308594 82.734375 250.738281 C 81.554688 248.074219 79.910156 245.734375 77.808594 243.71875 C 75.628906 241.617188 73.15625 239.960938 70.386719 238.738281 C 67.5625 237.472656 64.601562 236.84375 61.503906 236.855469 C 59.070312 236.621094 56.675781 236.832031 54.320312 237.488281 C 51.949219 238.136719 49.625 238.917969 47.34375 239.835938 C 45.617188 240.519531 44.015625 241.429688 42.546875 242.570312 C 41.074219 243.707031 39.792969 245.027344 38.695312 246.527344 C 36.476562 249.515625 34.972656 252.828125 34.1875 256.464844 C 33.402344 260.039062 33.402344 263.613281 34.1875 267.1875 C 34.546875 268.9375 35.164062 270.589844 36.03125 272.152344 C 36.898438 273.710938 37.976562 275.105469 39.269531 276.335938 C 42.019531 279.066406 45.066406 281.414062 48.410156 283.371094 C 51.785156 285.34375 55.304688 287.003906 58.972656 288.347656 C 60.210938 288.65625 61.394531 289.101562 62.53125 289.6875 C 63.640625 290.25 64.707031 290.882812 65.730469 291.59375 C 66.253906 291.90625 66.691406 292.3125 67.050781 292.804688 C 67.410156 293.300781 67.660156 293.84375 67.800781 294.4375 C 68.042969 295.554688 67.609375 296.570312 66.511719 297.550781 C 65.566406 298.269531 64.511719 298.742188 63.347656 298.960938 C 62.03125 299.242188 60.707031 299.300781 59.371094 299.140625 C 57.984375 298.976562 56.648438 298.617188 55.367188 298.066406 C 54.15625 297.570312 53.113281 296.835938 52.238281 295.867188 C 51.59375 295.109375 51.03125 294.300781 50.542969 293.433594 C 50.042969 292.535156 49.398438 291.75 48.609375 291.085938 C 47.867188 290.351562 47.089844 289.652344 46.277344 288.996094 C 45.523438 288.390625 44.699219 287.917969 43.792969 287.574219 C 42.878906 287.230469 41.929688 287.078125 40.949219 287.113281 C 39.738281 287.179688 38.582031 287.472656 37.484375 287.992188 C 35.925781 288.699219 34.433594 289.527344 33.011719 290.484375 C 31.996094 291.164062 31.136719 292.007812 30.429688 293.007812 C 29.859375 293.851562 29.578125 294.78125 29.578125 295.796875 C 29.609375 296.980469 29.816406 298.136719 30.195312 299.257812 C 31.316406 302.84375 33.132812 306.035156 35.644531 308.824219 C 37.84375 311.203125 40.421875 313.0625 43.367188 314.402344 C 46.21875 315.691406 49.199219 316.507812 52.308594 316.855469 C 55.335938 317.210938 58.363281 317.242188 61.398438 316.949219 C 63.953125 316.734375 66.476562 316.316406 68.964844 315.695312 C 71.28125 315.121094 73.453125 314.203125 75.480469 312.953125 C 77.53125 311.667969 79.316406 310.082031 80.828125 308.191406 C 82.574219 305.953125 83.898438 303.488281 84.804688 300.796875 C 85.726562 298.121094 86.289062 295.371094 86.484375 292.546875 C 86.710938 289.570312 86.273438 286.695312 85.167969 283.925781 C 83.917969 280.914062 82.046875 278.359375 79.558594 276.257812 Z M 38.695312 296.636719 C 38.316406 296.289062 38.046875 295.871094 37.894531 295.378906 C 37.742188 294.886719 37.726562 294.390625 37.839844 293.890625 C 37.839844 293.777344 38.035156 293.621094 38.410156 293.433594 C 38.789062 293.25 39.042969 293.179688 39.1875 293.234375 C 40.101562 293.632812 40.773438 294.285156 41.199219 295.191406 C 41.589844 296.214844 41.796875 297.273438 41.816406 298.371094 C 40.683594 297.960938 39.640625 297.382812 38.695312 296.636719 Z M 67.03125 285.882812 C 65.140625 285.167969 63.21875 284.457031 61.269531 283.824219 C 59.320312 283.191406 57.429688 282.402344 55.582031 281.628906 C 53.710938 280.8125 52.117188 279.628906 50.800781 278.070312 C 52.558594 279.113281 54.4375 279.851562 56.433594 280.289062 C 58.46875 280.746094 60.472656 281.265625 62.449219 281.871094 C 64.398438 282.449219 66.25 283.253906 68.007812 284.28125 C 69.882812 285.445312 71.28125 287.035156 72.195312 289.046875 C 70.671875 287.671875 68.949219 286.617188 67.03125 285.882812 Z M 75.6875 284.679688 C 74.878906 283.664062 73.984375 282.734375 73 281.890625 C 72.046875 281.082031 71.039062 280.351562 69.976562 279.691406 C 68.910156 279.039062 67.84375 278.371094 66.824219 277.703125 C 70.410156 278.3125 73.121094 279.453125 74.960938 281.121094 C 76.800781 282.792969 77.824219 285.199219 78.035156 288.347656 C 77.371094 287.050781 76.585938 285.828125 75.6875 284.679688 Z M 153.050781 241.144531 C 153.121094 239.621094 152.632812 238.648438 151.585938 238.207031 C 150.398438 237.738281 149.164062 237.515625 147.886719 237.542969 C 139.269531 237.605469 130.703125 237.652344 122.183594 237.679688 C 113.660156 237.707031 105.058594 237.75 96.378906 237.808594 C 95.371094 237.800781 94.382812 237.917969 93.40625 238.164062 C 92.90625 238.316406 92.460938 238.5625 92.070312 238.90625 C 91.679688 239.25 91.375 239.660156 91.15625 240.132812 C 90.234375 241.917969 89.757812 243.8125 89.734375 245.824219 C 89.699219 247.578125 90.105469 249.222656 90.949219 250.757812 C 91.8125 252.269531 93.019531 253.417969 94.570312 254.207031 C 96.386719 255.117188 98.308594 255.488281 100.332031 255.320312 C 100.921875 255.320312 101.457031 255.320312 101.941406 255.277344 C 102.421875 255.234375 102.949219 255.234375 103.539062 255.234375 C 105.640625 255.175781 107.300781 255.175781 108.519531 255.234375 C 109.488281 255.210938 110.375 255.464844 111.179688 256 C 111.847656 256.609375 112.234375 257.359375 112.34375 258.257812 C 112.550781 259.316406 112.757812 260.757812 112.964844 262.601562 C 113.027344 263.457031 113.113281 264.203125 113.21875 264.863281 C 113.328125 265.523438 113.425781 266.136719 113.535156 266.707031 C 113.640625 267.273438 113.710938 267.894531 113.761719 268.546875 C 113.8125 269.203125 113.839844 269.96875 113.839844 270.765625 C 113.910156 277.203125 113.945312 283.863281 113.945312 290.753906 L 113.945312 310.789062 C 113.945312 311.257812 113.945312 311.75 113.894531 312.261719 C 113.859375 312.757812 113.875 313.253906 113.945312 313.746094 C 114.003906 314.214844 114.15625 314.644531 114.40625 315.042969 C 114.703125 315.472656 115.101562 315.765625 115.597656 315.925781 C 117.816406 316.558594 120.078125 316.863281 122.386719 316.84375 C 124.671875 316.8125 126.886719 316.40625 129.03125 315.617188 C 130.960938 314.910156 132.226562 313.886719 132.828125 312.546875 C 133.472656 311 133.773438 309.390625 133.734375 307.714844 C 133.628906 303.648438 133.578125 299.800781 133.578125 296.171875 L 133.578125 274.691406 C 133.578125 271.078125 133.539062 267.226562 133.46875 263.128906 C 133.472656 262.117188 133.535156 261.109375 133.65625 260.105469 C 133.761719 259.140625 134.035156 258.226562 134.472656 257.359375 C 134.875 256.570312 135.453125 255.941406 136.207031 255.476562 C 137.160156 254.96875 138.167969 254.800781 139.230469 254.96875 C 141.21875 255.148438 143.207031 255.160156 145.199219 255.011719 C 147.242188 254.9375 149.164062 254.414062 150.960938 253.433594 C 151.960938 252.933594 152.617188 252.140625 152.921875 251.066406 C 153.234375 249.976562 153.390625 248.863281 153.386719 247.730469 C 153.382812 246.554688 153.316406 245.382812 153.179688 244.214844 C 153.039062 243.195312 153 242.171875 153.050781 241.144531 Z M 102.964844 244.5 C 100.585938 244.808594 98.269531 244.554688 96.015625 243.730469 C 97.144531 243.230469 98.316406 242.859375 99.527344 242.617188 C 100.59375 242.402344 101.671875 242.308594 102.757812 242.332031 C 103.773438 242.359375 104.78125 242.453125 105.78125 242.617188 C 106.777344 242.773438 107.757812 242.886719 108.726562 242.941406 C 106.859375 243.65625 104.9375 244.175781 102.964844 244.5 Z M 126.707031 302.824219 C 126.039062 301.824219 125.566406 300.742188 125.285156 299.574219 C 125.039062 298.492188 124.933594 297.394531 124.96875 296.285156 C 125.007812 295.15625 125.164062 294.046875 125.441406 292.949219 C 125.710938 291.835938 125.988281 290.726562 126.265625 289.613281 C 127.042969 291.742188 127.492188 293.933594 127.609375 296.195312 C 127.710938 298.453125 127.410156 300.65625 126.707031 302.800781 Z M 215.464844 259.726562 C 215.390625 256.554688 215.3125 253.625 215.207031 250.929688 C 215.101562 248.234375 214.980469 246.070312 214.84375 244.4375 C 214.703125 243.128906 214.480469 241.832031 214.175781 240.554688 C 214.0625 240.113281 213.863281 239.71875 213.570312 239.371094 C 213.28125 239.019531 212.929688 238.75 212.519531 238.5625 C 211.273438 238.066406 209.980469 237.828125 208.640625 237.851562 C 206.921875 237.792969 204.445312 237.765625 201.203125 237.765625 C 199.886719 237.691406 198.640625 237.949219 197.460938 238.53125 C 196.644531 238.976562 195.992188 239.589844 195.5 240.375 C 195.058594 241.105469 194.792969 241.894531 194.695312 242.742188 C 194.59375 243.566406 194.542969 244.394531 194.539062 245.226562 C 194.539062 247.386719 194.558594 249.917969 194.59375 252.816406 C 194.632812 255.710938 194.667969 258.785156 194.695312 262.03125 C 194.726562 265.324219 194.726562 268.726562 194.695312 272.238281 C 194.660156 275.753906 194.574219 279.160156 194.4375 282.460938 C 194.4375 283.050781 194.402344 283.925781 194.332031 285.089844 C 194.261719 286.257812 194.210938 287.496094 194.183594 288.78125 C 194.152344 290.070312 194.074219 291.28125 193.976562 292.425781 C 193.917969 293.300781 193.777344 294.164062 193.554688 295.011719 C 193.363281 295.949219 192.855469 296.660156 192.035156 297.148438 C 191.082031 297.78125 190.039062 298.199219 188.910156 298.398438 C 187.605469 298.695312 186.304688 298.683594 185.007812 298.355469 C 183.90625 298.101562 182.984375 297.542969 182.246094 296.683594 C 180.972656 295.175781 180.195312 293.441406 179.921875 291.484375 C 179.648438 289.617188 179.511719 287.738281 179.507812 285.851562 C 179.507812 282.78125 179.492188 279.445312 179.453125 275.84375 C 179.414062 272.246094 179.382812 268.601562 179.351562 264.914062 C 179.304688 261.265625 179.28125 257.652344 179.28125 254.066406 C 179.28125 250.511719 179.230469 247.152344 179.230469 244.109375 C 179.230469 239.308594 175.976562 237.175781 169.464844 237.707031 C 168.085938 237.820312 166.691406 237.914062 165.285156 237.972656 C 163.953125 238.015625 162.644531 238.210938 161.359375 238.5625 C 160.21875 238.851562 159.246094 239.421875 158.433594 240.277344 C 157.59375 241.335938 157.222656 242.542969 157.324219 243.894531 C 157.394531 249.894531 157.34375 256.007812 157.167969 262.238281 C 156.992188 268.46875 157.046875 274.582031 157.324219 280.582031 C 157.515625 284.855469 157.941406 289.101562 158.605469 293.328125 C 159.335938 297.65625 160.777344 301.738281 162.921875 305.570312 C 164.160156 307.800781 165.804688 309.671875 167.859375 311.179688 C 169.960938 312.734375 172.238281 313.945312 174.703125 314.820312 C 177.289062 315.746094 179.949219 316.347656 182.679688 316.621094 C 185.460938 316.917969 188.242188 316.949219 191.023438 316.714844 C 194.726562 316.421875 198.238281 315.449219 201.566406 313.796875 C 204.363281 312.367188 206.800781 310.46875 208.878906 308.109375 C 210.832031 305.871094 212.3125 303.355469 213.324219 300.5625 C 214.335938 297.785156 214.980469 294.925781 215.257812 291.984375 C 215.394531 290.902344 215.5 289.203125 215.570312 286.890625 C 215.632812 284.585938 215.667969 281.914062 215.667969 278.976562 C 215.667969 276.039062 215.667969 272.84375 215.621094 269.492188 C 215.570312 266.144531 215.554688 262.902344 215.464844 259.726562 Z M 176.4375 309.429688 C 173.675781 308.40625 171.195312 306.09375 168.996094 302.496094 C 170.546875 303.398438 172.046875 304.261719 173.492188 305.0625 C 174.9375 305.867188 176.386719 306.585938 177.832031 307.199219 C 179.273438 307.828125 180.753906 308.339844 182.277344 308.734375 C 183.851562 309.148438 185.449219 309.382812 187.078125 309.445312 C 182.753906 310.460938 179.207031 310.453125 176.4375 309.429688 Z M 274.285156 256.507812 C 273.578125 253.019531 272.65625 250.386719 271.515625 248.605469 C 270.613281 247.136719 269.476562 245.878906 268.109375 244.828125 C 266.644531 243.675781 265.078125 242.679688 263.410156 241.847656 C 261.683594 240.984375 259.898438 240.257812 258.058594 239.671875 C 256.273438 239.097656 254.460938 238.652344 252.613281 238.332031 C 250.539062 238.050781 248.453125 237.890625 246.359375 237.851562 C 243.671875 237.765625 240.828125 237.75 237.824219 237.808594 C 234.824219 237.863281 231.914062 237.996094 229.097656 238.207031 C 226.253906 238.410156 223.996094 238.660156 222.328125 238.953125 C 220.777344 239.273438 219.953125 239.824219 219.851562 240.59375 C 219.746094 241.371094 219.660156 242.300781 219.589844 243.382812 C 219.476562 244.542969 219.425781 245.703125 219.4375 246.867188 C 219.402344 248.847656 219.382812 251.347656 219.382812 254.371094 C 219.382812 257.398438 219.367188 260.8125 219.332031 264.621094 C 219.300781 268.414062 219.28125 272.328125 219.28125 276.355469 C 219.28125 280.386719 219.265625 284.386719 219.234375 288.347656 C 219.203125 292.300781 219.1875 295.949219 219.183594 299.296875 L 219.183594 313.320312 C 219.222656 314.148438 219.460938 314.917969 219.894531 315.625 C 220.378906 316.484375 221.316406 316.914062 222.738281 316.914062 L 243.203125 316.914062 C 245.007812 316.894531 246.808594 316.777344 248.601562 316.566406 C 250.71875 316.332031 252.855469 316.003906 255 315.574219 C 257.089844 315.175781 259.144531 314.664062 261.175781 314.039062 C 262.800781 313.597656 264.308594 312.902344 265.699219 311.957031 C 267.734375 310.695312 269.453125 308.496094 270.863281 305.355469 C 272.386719 301.863281 273.480469 298.246094 274.140625 294.496094 C 274.953125 290.167969 275.488281 285.808594 275.75 281.414062 C 276.042969 276.984375 276.042969 272.550781 275.75 268.121094 C 275.515625 264.21875 275.027344 260.347656 274.285156 256.507812 Z M 247.441406 243.035156 C 249.054688 242.847656 250.542969 243.191406 251.914062 244.058594 C 253.402344 245.253906 254.558594 246.707031 255.386719 248.425781 C 254.972656 248.285156 254.546875 248.121094 254.121094 247.949219 C 253.691406 247.777344 253.300781 247.621094 252.953125 247.507812 C 253.039062 247.648438 253.105469 247.796875 253.160156 247.949219 L 253.367188 248.425781 C 251.269531 247.582031 249.300781 246.800781 247.457031 246.078125 L 241.851562 243.945312 C 243.65625 243.296875 245.519531 242.992188 247.441406 243.035156 Z M 243.515625 304.117188 C 242.269531 304.125 241.027344 304.039062 239.796875 303.855469 C 239.261719 303.816406 238.839844 303.578125 238.527344 303.144531 C 238.21875 302.699219 238.019531 302.210938 237.9375 301.679688 C 237.828125 301.023438 237.757812 300.363281 237.734375 299.699219 C 237.695312 298.988281 237.683594 298.277344 237.683594 297.566406 L 237.683594 288.542969 C 237.683594 286.578125 237.699219 284.550781 237.734375 282.460938 C 237.765625 280.367188 237.800781 278.367188 237.832031 276.449219 C 237.867188 274.53125 237.917969 272.816406 237.988281 271.292969 C 238.058594 269.769531 238.09375 268.589844 238.09375 267.738281 C 238.160156 264.890625 238.214844 262.515625 238.25 260.496094 C 238.246094 258.796875 238.425781 257.113281 238.792969 255.453125 C 239.015625 254.273438 239.550781 253.257812 240.394531 252.402344 C 241.363281 251.613281 242.476562 251.210938 243.726562 251.191406 C 243.878906 251.132812 244.03125 251.121094 244.191406 251.152344 C 244.34375 251.175781 244.496094 251.191406 244.652344 251.191406 L 245.222656 251.191406 C 246.023438 251.160156 246.773438 251.34375 247.46875 251.742188 C 248.34375 252.214844 249.117188 252.8125 249.796875 253.539062 C 250.589844 254.382812 251.3125 255.285156 251.964844 256.242188 C 252.65625 257.242188 253.285156 258.28125 253.847656 259.359375 C 254.921875 261.78125 255.722656 264.289062 256.253906 266.882812 C 256.941406 270.039062 257.378906 273.226562 257.570312 276.449219 C 257.777344 279.742188 257.761719 283.03125 257.519531 286.320312 C 257.351562 289.1875 256.800781 291.976562 255.863281 294.6875 C 255.265625 296.476562 254.414062 298.136719 253.308594 299.664062 C 252.464844 300.785156 251.457031 301.734375 250.285156 302.511719 C 249.285156 303.175781 248.191406 303.605469 247.007812 303.804688 C 245.851562 304 244.6875 304.105469 243.515625 304.117188 Z M 248.828125 312.277344 Z M 263.871094 308.308594 C 261.167969 311.089844 256.738281 312.398438 250.578125 312.234375 C 252.289062 312.175781 253.949219 311.859375 255.554688 311.273438 C 257.359375 310.636719 258.976562 309.6875 260.414062 308.429688 C 261.417969 307.53125 262.226562 306.480469 262.839844 305.285156 C 263.089844 304.652344 263.425781 304.066406 263.851562 303.535156 C 264.824219 302.570312 265.496094 301.425781 265.863281 300.105469 C 266.222656 298.753906 266.359375 297.378906 266.273438 295.980469 C 267.394531 301.40625 266.59375 305.515625 263.871094 308.308594 Z M 342.558594 238.40625 C 341.078125 237.828125 338.289062 237.539062 334.191406 237.542969 C 330.195312 237.542969 327.242188 238.078125 325.332031 239.144531 C 324.421875 239.621094 323.648438 240.257812 323.003906 241.054688 C 322.363281 241.851562 321.90625 242.746094 321.632812 243.730469 C 321.429688 244.40625 321.058594 245.445312 320.523438 246.847656 C 319.988281 248.25 319.375 249.789062 318.6875 251.457031 C 318.019531 253.128906 317.328125 254.8125 316.617188 256.527344 C 315.90625 258.242188 315.324219 259.691406 314.839844 260.894531 C 314.597656 260.601562 314.183594 260.003906 313.59375 259.117188 C 313.003906 258.226562 312.386719 257.253906 311.71875 256.191406 C 311.046875 255.132812 310.421875 254.167969 309.855469 253.253906 C 309.285156 252.34375 308.902344 251.746094 308.6875 251.457031 C 307.207031 249.058594 306.023438 247.039062 305.132812 245.402344 C 304.386719 244.042969 303.578125 242.726562 302.699219 241.449219 C 302.089844 240.554688 301.347656 239.789062 300.480469 239.144531 C 299.539062 238.539062 298.515625 238.167969 297.40625 238.027344 C 295.785156 237.796875 294.15625 237.679688 292.519531 237.679688 C 290.542969 237.652344 288.003906 237.605469 284.902344 237.542969 C 282.347656 237.488281 280.976562 238.007812 280.769531 239.101562 C 280.5625 240.195312 281.160156 241.746094 282.578125 243.730469 C 283.644531 245.113281 284.988281 247.007812 286.609375 249.421875 C 288.230469 251.835938 290.03125 254.566406 292.007812 257.609375 C 293.984375 260.636719 296.007812 263.8125 298.074219 267.132812 C 300.144531 270.453125 302.175781 273.730469 304.171875 276.96875 C 302.246094 280.855469 300.421875 284.617188 298.695312 288.25 C 296.96875 291.882812 295.351562 295.234375 293.84375 298.304688 C 292.320312 301.359375 290.976562 304.066406 289.8125 306.421875 C 288.636719 308.777344 287.710938 310.691406 287.023438 312.148438 C 286.226562 313.699219 285.890625 314.804688 286.011719 315.460938 C 286.136719 316.121094 287.175781 316.566406 289.136719 316.800781 C 290.320312 316.859375 291.503906 316.859375 292.691406 316.800781 C 294.359375 316.742188 296.609375 316.714844 299.433594 316.714844 C 301.25 316.777344 303.039062 316.59375 304.804688 316.167969 C 305.445312 315.945312 306 315.585938 306.464844 315.09375 C 306.929688 314.601562 307.257812 314.03125 307.441406 313.378906 C 307.886719 312.671875 308.550781 311.539062 309.433594 309.976562 C 310.308594 308.414062 311.242188 306.769531 312.222656 305.0625 C 313.203125 303.355469 314.164062 301.707031 315.117188 300.128906 C 316.070312 298.546875 316.761719 297.332031 317.207031 296.480469 L 326.40625 281.300781 C 327.828125 278.488281 329.125 275.878906 330.300781 273.476562 C 331.476562 271.074219 332.625 268.671875 333.738281 266.277344 C 334.84375 263.90625 335.902344 261.511719 336.917969 259.089844 C 337.933594 256.664062 338.96875 254.0625 340.023438 251.277344 C 340.789062 249.195312 341.738281 247.199219 342.871094 245.289062 C 343.765625 243.996094 344.34375 242.574219 344.605469 241.023438 C 344.71875 239.855469 344.035156 238.984375 342.558594 238.40625 Z M 283.972656 239.984375 C 283.511719 240.195312 283.035156 240.371094 282.546875 240.511719 C 282.617188 240.351562 282.679688 240.191406 282.726562 240.027344 C 282.78125 239.847656 282.875 239.691406 283.011719 239.5625 C 283.207031 239.40625 283.429688 239.300781 283.679688 239.257812 C 284.125 239.175781 284.570312 239.140625 285.023438 239.152344 C 284.753906 239.53125 284.402344 239.808594 283.972656 239.984375 Z M 313.472656 293.5625 C 311.152344 296.492188 309.191406 299.644531 307.585938 303.023438 C 306.160156 306.058594 305.160156 309.226562 304.582031 312.53125 C 304.484375 312.886719 304.378906 313.242188 304.277344 313.589844 C 304.179688 313.941406 303.566406 314.1875 302.472656 314.304688 C 301.375 314.417969 300.984375 314.304688 301.046875 313.933594 C 301.078125 313.585938 301.164062 313.257812 301.3125 312.945312 C 303.695312 307.382812 306.433594 302 309.527344 296.796875 C 312.65625 291.496094 316.011719 286.160156 319.597656 280.78125 C 318.820312 285.015625 316.777344 289.28125 313.472656 293.582031 Z M 313.472656 293.5625 " fill-opacity="1" fill-rule="nonzero"/><g clip-path="url(#58ecb641a3)"><g clip-path="url(#06905b46ed)"><g clip-path="url(#271a9540f0)"><path fill="#ffffff" d="M 112.441406 85.640625 C 110.023438 86.496094 107.652344 85.828125 107.046875 84.113281 C 106.886719 83.660156 107.121094 83.164062 107.578125 83.003906 C 108.03125 82.839844 108.527344 83.078125 108.6875 83.53125 C 108.925781 84.199219 110.332031 84.539062 111.859375 83.996094 C 112.3125 83.835938 112.8125 84.074219 112.972656 84.527344 C 113.132812 84.980469 112.898438 85.476562 112.441406 85.640625 Z M 165.792969 62.082031 L 106.851562 66.585938 C 106.222656 66.636719 105.296875 66.964844 104.78125 67.320312 L 56.179688 100.980469 C 55.894531 101.175781 55.800781 101.363281 55.871094 101.503906 C 55.871094 101.503906 55.867188 101.503906 55.867188 101.503906 C 55.871094 101.523438 55.878906 101.542969 55.890625 101.5625 C 55.890625 101.582031 55.902344 101.601562 55.910156 101.617188 C 55.914062 101.636719 55.921875 101.65625 55.929688 101.675781 C 55.933594 101.695312 55.941406 101.710938 55.949219 101.730469 C 55.953125 101.75 55.960938 101.769531 55.96875 101.789062 C 55.972656 101.808594 55.980469 101.824219 55.988281 101.84375 C 55.992188 101.863281 56 101.882812 56.007812 101.902344 C 56.011719 101.921875 56.019531 101.941406 56.03125 101.957031 C 56.03125 101.976562 56.042969 101.996094 56.050781 102.015625 C 56.054688 102.035156 56.0625 102.054688 56.070312 102.070312 C 56.074219 102.09375 56.082031 102.109375 56.089844 102.128906 C 56.09375 102.148438 56.101562 102.164062 56.109375 102.183594 C 56.113281 102.203125 56.121094 102.222656 56.128906 102.242188 C 56.132812 102.261719 56.140625 102.28125 56.152344 102.300781 C 56.152344 102.320312 56.160156 102.335938 56.171875 102.355469 C 56.175781 102.375 56.183594 102.394531 56.191406 102.414062 C 56.195312 102.433594 56.203125 102.449219 56.210938 102.46875 C 56.214844 102.488281 56.222656 102.507812 56.230469 102.527344 C 56.234375 102.546875 56.242188 102.5625 56.25 102.582031 C 56.253906 102.601562 56.261719 102.621094 56.273438 102.640625 C 56.273438 102.660156 56.28125 102.675781 56.292969 102.695312 C 56.296875 102.714844 56.304688 102.734375 56.3125 102.753906 C 56.335938 102.898438 56.511719 103.007812 56.839844 103.039062 L 80.578125 105.246094 L 107.460938 87.40625 L 85.46875 105.703125 L 94.773438 131.925781 C 93.863281 132.71875 93.472656 134.011719 93.902344 135.21875 C 94.140625 135.890625 94.601562 136.417969 95.164062 136.765625 C 93.089844 139.375 92.789062 144.609375 94.699219 149.984375 L 108.296875 145.15625 C 106.390625 139.78125 102.859375 135.90625 99.605469 135.1875 C 99.820312 134.5625 99.847656 133.867188 99.609375 133.195312 C 99.179688 131.988281 98.0625 131.226562 96.855469 131.1875 L 87.890625 105.929688 L 119.597656 108.878906 C 120.226562 108.9375 121.097656 108.628906 121.542969 108.1875 L 166.578125 64.097656 C 166.8125 63.867188 166.882812 63.671875 166.808594 63.542969 C 166.800781 63.523438 166.796875 63.503906 166.789062 63.488281 C 166.78125 63.46875 166.777344 63.449219 166.765625 63.429688 C 166.761719 63.410156 166.757812 63.390625 166.746094 63.375 C 166.742188 63.355469 166.738281 63.335938 166.726562 63.316406 C 166.722656 63.296875 166.714844 63.277344 166.707031 63.261719 C 166.703125 63.242188 166.695312 63.222656 166.6875 63.203125 C 166.679688 63.183594 166.675781 63.164062 166.667969 63.148438 C 166.660156 63.128906 166.65625 63.109375 166.644531 63.089844 C 166.640625 63.070312 166.636719 63.050781 166.625 63.03125 C 166.621094 63.015625 166.617188 62.996094 166.605469 62.976562 C 166.601562 62.957031 166.59375 62.9375 166.585938 62.917969 C 166.582031 62.902344 166.574219 62.882812 166.566406 62.863281 C 166.5625 62.84375 166.554688 62.824219 166.546875 62.804688 C 166.539062 62.785156 166.535156 62.765625 166.527344 62.75 C 166.519531 62.730469 166.515625 62.710938 166.503906 62.691406 C 166.5 62.671875 166.496094 62.652344 166.484375 62.636719 C 166.480469 62.617188 166.476562 62.597656 166.464844 62.578125 C 166.460938 62.558594 166.453125 62.539062 166.445312 62.523438 C 166.4375 62.503906 166.433594 62.484375 166.425781 62.464844 C 166.417969 62.445312 166.414062 62.425781 166.40625 62.410156 C 166.398438 62.386719 166.394531 62.371094 166.382812 62.351562 C 166.378906 62.332031 166.375 62.3125 166.363281 62.296875 C 166.328125 62.144531 166.136719 62.058594 165.792969 62.082031 " fill-opacity="1" fill-rule="nonzero"/></g></g></g><g clip-path="url(#adb8bc973f)"><g clip-path="url(#c591aabbe9)"><g clip-path="url(#c818da03a5)"><path fill="#ffffff" d="M 120.398438 111.132812 L 90.972656 108.394531 L 97.832031 127.71875 C 104.390625 129.050781 114.886719 127.773438 125.996094 123.832031 C 142.980469 117.804688 154.953125 107.84375 152.730469 101.585938 L 147.230469 86.078125 L 122.34375 110.441406 C 121.894531 110.882812 121.023438 111.191406 120.398438 111.132812 " fill-opacity="1" fill-rule="nonzero"/></g></g></g><g clip-path="url(#4563de4a33)"><g clip-path="url(#604c712d05)"><g clip-path="url(#1ce2daecee)"><path fill="#ffffff" d="M 292.164062 87.113281 C 294.417969 88.34375 296.863281 88.058594 297.738281 86.464844 C 297.96875 86.042969 297.8125 85.515625 297.390625 85.285156 C 296.96875 85.054688 296.441406 85.207031 296.207031 85.628906 C 295.867188 86.25 294.425781 86.363281 293.003906 85.582031 C 292.582031 85.351562 292.050781 85.507812 291.820312 85.929688 C 291.589844 86.351562 291.742188 86.878906 292.164062 87.113281 Z M 243.253906 55.351562 L 300.722656 69.195312 C 301.335938 69.339844 302.199219 69.8125 302.648438 70.25 L 345.265625 111.222656 C 345.515625 111.460938 345.578125 111.664062 345.488281 111.792969 C 345.480469 111.808594 345.472656 111.828125 345.460938 111.84375 C 345.453125 111.863281 345.441406 111.878906 345.429688 111.898438 C 345.421875 111.914062 345.414062 111.933594 345.402344 111.949219 C 345.394531 111.96875 345.382812 111.984375 345.371094 112.003906 C 345.367188 112.023438 345.355469 112.039062 345.34375 112.054688 C 345.335938 112.074219 345.328125 112.089844 345.3125 112.105469 C 345.308594 112.128906 345.296875 112.144531 345.285156 112.160156 C 345.277344 112.179688 345.269531 112.195312 345.257812 112.214844 C 345.25 112.234375 345.238281 112.25 345.226562 112.265625 C 345.222656 112.285156 345.210938 112.304688 345.199219 112.320312 C 345.191406 112.339844 345.179688 112.355469 345.167969 112.371094 C 345.164062 112.390625 345.152344 112.40625 345.140625 112.425781 C 345.136719 112.445312 345.125 112.460938 345.113281 112.476562 C 345.105469 112.496094 345.09375 112.515625 345.082031 112.53125 C 345.078125 112.550781 345.066406 112.566406 345.054688 112.582031 C 345.046875 112.601562 345.035156 112.621094 345.027344 112.636719 C 345.019531 112.65625 345.007812 112.671875 344.996094 112.6875 C 344.992188 112.707031 344.980469 112.726562 344.96875 112.742188 C 344.960938 112.761719 344.949219 112.777344 344.9375 112.796875 C 344.933594 112.816406 344.921875 112.832031 344.910156 112.847656 C 344.902344 112.867188 344.890625 112.882812 344.878906 112.902344 C 344.875 112.921875 344.863281 112.9375 344.851562 112.953125 C 344.804688 113.09375 344.613281 113.171875 344.285156 113.152344 L 320.5 111.546875 L 296.800781 89.652344 L 315.597656 111.21875 L 302.230469 135.621094 C 303.003906 136.550781 303.183594 137.890625 302.566406 139.011719 C 302.222656 139.636719 301.6875 140.082031 301.074219 140.335938 C 302.707031 143.242188 302.167969 148.460938 299.429688 153.460938 L 286.773438 146.527344 C 289.511719 141.527344 293.617188 138.265625 296.941406 138.074219 C 296.828125 137.421875 296.914062 136.730469 297.257812 136.105469 C 297.871094 134.980469 299.097656 134.410156 300.292969 134.5625 L 313.167969 111.054688 L 281.398438 108.914062 C 280.769531 108.875 279.957031 108.429688 279.585938 107.921875 L 242.15625 57.214844 C 241.960938 56.953125 241.925781 56.75 242.019531 56.632812 C 242.027344 56.617188 242.035156 56.597656 242.046875 56.582031 C 242.054688 56.5625 242.0625 56.542969 242.078125 56.527344 C 242.085938 56.507812 242.09375 56.492188 242.105469 56.476562 C 242.113281 56.457031 242.121094 56.4375 242.132812 56.421875 C 242.144531 56.402344 242.152344 56.386719 242.164062 56.367188 C 242.171875 56.351562 242.179688 56.332031 242.191406 56.316406 C 242.199219 56.296875 242.207031 56.28125 242.222656 56.261719 C 242.230469 56.246094 242.238281 56.226562 242.25 56.210938 C 242.257812 56.191406 242.265625 56.175781 242.277344 56.15625 C 242.285156 56.140625 242.296875 56.121094 242.308594 56.105469 C 242.316406 56.085938 242.324219 56.070312 242.335938 56.050781 C 242.34375 56.035156 242.351562 56.015625 242.367188 56 C 242.375 55.980469 242.382812 55.964844 242.394531 55.945312 C 242.402344 55.929688 242.410156 55.910156 242.421875 55.894531 C 242.433594 55.875 242.441406 55.855469 242.453125 55.839844 C 242.460938 55.824219 242.46875 55.804688 242.480469 55.789062 C 242.488281 55.769531 242.496094 55.75 242.511719 55.734375 C 242.519531 55.71875 242.527344 55.699219 242.539062 55.683594 C 242.546875 55.664062 242.554688 55.644531 242.566406 55.628906 C 242.578125 55.609375 242.585938 55.59375 242.597656 55.578125 C 242.605469 55.558594 242.613281 55.539062 242.625 55.523438 C 242.632812 55.503906 242.640625 55.488281 242.65625 55.472656 C 242.714844 55.328125 242.917969 55.273438 243.253906 55.351562 " fill-opacity="1" fill-rule="nonzero"/></g></g></g><g clip-path="url(#19fa944e4a)"><g clip-path="url(#8e629a9ac5)"><g clip-path="url(#d7b342b3ea)"><path fill="#ffffff" d="M 280.25 111.011719 L 309.734375 112.996094 L 299.882812 130.980469 C 293.195312 131.253906 283.039062 128.316406 272.699219 122.65625 C 256.890625 113.996094 246.660156 102.257812 249.851562 96.433594 L 257.753906 82 L 278.4375 110.019531 C 278.8125 110.527344 279.621094 110.96875 280.25 111.011719 " fill-opacity="1" fill-rule="nonzero"/></g></g></g></svg>