<svg xmlns="http://www.w3.org/2000/svg" xmlns:xlink="http://www.w3.org/1999/xlink" width="500" zoomAndPan="magnify" viewBox="0 0 375 374.999991" height="500" preserveAspectRatio="xMidYMid meet" version="1.0"><defs><clipPath id="c74944605b"><path d="M 74.75 74.75 L 300.25 74.75 L 300.25 300.25 L 74.75 300.25 Z M 74.75 74.75 " clip-rule="nonzero"/></clipPath><clipPath id="2163f398d2"><path d="M 187.5 74.75 C 125.230469 74.75 74.75 125.230469 74.75 187.5 C 74.75 249.769531 125.230469 300.25 187.5 300.25 C 249.769531 300.25 300.25 249.769531 300.25 187.5 C 300.25 125.230469 249.769531 74.75 187.5 74.75 Z M 187.5 74.75 " clip-rule="nonzero"/></clipPath><clipPath id="a0fec28efe"><path d="M 182.496094 74.753906 L 300.246094 74.753906 L 300.246094 300.503906 L 182.496094 300.503906 Z M 182.496094 74.753906 " clip-rule="nonzero"/></clipPath></defs><g clip-path="url(#c74944605b)"><g clip-path="url(#2163f398d2)"><path fill="#000000" d="M 74.75 74.75 L 300.25 74.75 L 300.25 300.25 L 74.75 300.25 Z M 74.75 74.75 " fill-opacity="1" fill-rule="nonzero"/></g></g><g clip-path="url(#a0fec28efe)"><path fill="#ffffff" d="M 182.691406 295.628906 L 182.691406 79.390625 C 182.6875 79.078125 182.714844 78.765625 182.773438 78.460938 C 182.832031 78.152344 182.921875 77.855469 183.039062 77.566406 C 183.15625 77.277344 183.304688 77 183.476562 76.738281 C 183.648438 76.480469 183.84375 76.238281 184.066406 76.015625 C 184.289062 75.796875 184.527344 75.597656 184.789062 75.425781 C 185.046875 75.253906 185.324219 75.105469 185.613281 74.988281 C 185.902344 74.871094 186.199219 74.78125 186.507812 74.722656 C 186.8125 74.664062 187.121094 74.632812 187.433594 74.636719 C 189.28125 74.636719 191.128906 74.683594 192.972656 74.773438 C 194.816406 74.867188 196.65625 75 198.496094 75.183594 C 200.332031 75.363281 202.164062 75.589844 203.992188 75.863281 C 205.816406 76.132812 207.636719 76.449219 209.449219 76.8125 C 211.257812 77.171875 213.058594 77.578125 214.851562 78.027344 C 216.644531 78.476562 218.421875 78.96875 220.1875 79.503906 C 221.957031 80.042969 223.707031 80.621094 225.449219 81.246094 C 227.1875 81.867188 228.90625 82.53125 230.613281 83.238281 C 232.320312 83.945312 234.007812 84.695312 235.675781 85.484375 C 237.347656 86.273438 238.996094 87.105469 240.625 87.976562 C 242.25 88.847656 243.859375 89.757812 245.441406 90.707031 C 247.023438 91.65625 248.585938 92.644531 250.121094 93.671875 C 251.65625 94.695312 253.164062 95.761719 254.648438 96.859375 C 256.128906 97.960938 257.585938 99.097656 259.011719 100.269531 C 260.441406 101.441406 261.835938 102.648438 263.207031 103.886719 C 264.574219 105.128906 265.910156 106.402344 267.214844 107.707031 C 268.523438 109.011719 269.792969 110.351562 271.035156 111.71875 C 272.273438 113.085938 273.480469 114.484375 274.652344 115.914062 C 275.824219 117.339844 276.957031 118.796875 278.058594 120.28125 C 279.15625 121.761719 280.21875 123.273438 281.246094 124.808594 C 282.273438 126.34375 283.257812 127.902344 284.207031 129.488281 C 285.15625 131.070312 286.066406 132.679688 286.9375 134.308594 C 287.808594 135.933594 288.636719 137.585938 289.429688 139.253906 C 290.21875 140.921875 290.964844 142.609375 291.671875 144.316406 C 292.378906 146.023438 293.042969 147.746094 293.664062 149.484375 C 294.285156 151.222656 294.867188 152.976562 295.402344 154.742188 C 295.9375 156.511719 296.429688 158.289062 296.878906 160.082031 C 297.328125 161.871094 297.730469 163.675781 298.089844 165.484375 C 298.453125 167.296875 298.765625 169.117188 299.039062 170.941406 C 299.308594 172.769531 299.535156 174.601562 299.714844 176.4375 C 299.898438 178.277344 300.03125 180.117188 300.125 181.960938 C 300.214844 183.808594 300.257812 185.652344 300.257812 187.5 C 300.257812 189.347656 300.214844 191.191406 300.125 193.035156 C 300.03125 194.878906 299.898438 196.722656 299.714844 198.558594 C 299.535156 200.398438 299.308594 202.230469 299.039062 204.054688 C 298.765625 205.882812 298.453125 207.703125 298.089844 209.511719 C 297.730469 211.324219 297.328125 213.125 296.878906 214.917969 C 296.429688 216.707031 295.9375 218.488281 295.402344 220.253906 C 294.867188 222.023438 294.285156 223.773438 293.664062 225.511719 C 293.042969 227.253906 292.378906 228.976562 291.671875 230.679688 C 290.964844 232.386719 290.21875 234.074219 289.429688 235.746094 C 288.636719 237.414062 287.808594 239.0625 286.9375 240.691406 C 286.066406 242.320312 285.15625 243.925781 284.207031 245.511719 C 283.257812 247.09375 282.273438 248.65625 281.246094 250.191406 C 280.21875 251.726562 279.15625 253.234375 278.058594 254.71875 C 276.957031 256.203125 275.824219 257.65625 274.652344 259.085938 C 273.480469 260.511719 272.273438 261.910156 271.035156 263.28125 C 269.792969 264.648438 268.523438 265.984375 267.214844 267.292969 C 265.910156 268.597656 264.574219 269.871094 263.207031 271.109375 C 261.835938 272.351562 260.441406 273.558594 259.011719 274.730469 C 257.585938 275.902344 256.128906 277.039062 254.648438 278.136719 C 253.164062 279.238281 251.65625 280.300781 250.121094 281.328125 C 248.585938 282.355469 247.023438 283.34375 245.441406 284.292969 C 243.859375 285.242188 242.25 286.152344 240.625 287.023438 C 238.996094 287.894531 237.347656 288.722656 235.675781 289.515625 C 234.007812 290.304688 232.320312 291.050781 230.613281 291.757812 C 228.90625 292.464844 227.1875 293.132812 225.449219 293.753906 C 223.707031 294.375 221.957031 294.957031 220.1875 295.492188 C 218.421875 296.03125 216.644531 296.523438 214.851562 296.972656 C 213.058594 297.421875 211.257812 297.824219 209.449219 298.1875 C 207.636719 298.546875 205.816406 298.863281 203.992188 299.136719 C 202.164062 299.40625 200.332031 299.632812 198.496094 299.816406 C 196.65625 299.996094 194.816406 300.132812 192.972656 300.222656 C 191.128906 300.316406 189.28125 300.359375 187.433594 300.363281 C 187.125 300.363281 186.816406 300.335938 186.507812 300.277344 C 186.203125 300.214844 185.90625 300.128906 185.617188 300.007812 C 185.328125 299.890625 185.054688 299.746094 184.796875 299.574219 C 184.535156 299.402344 184.296875 299.203125 184.078125 298.984375 C 183.855469 298.765625 183.660156 298.523438 183.484375 298.265625 C 183.3125 298.007812 183.167969 297.734375 183.046875 297.445312 C 182.929688 297.15625 182.839844 296.859375 182.78125 296.554688 C 182.71875 296.25 182.691406 295.941406 182.691406 295.628906 Z M 182.691406 295.628906 " fill-opacity="1" fill-rule="nonzero"/></g></svg>