<svg xmlns="http://www.w3.org/2000/svg" xmlns:xlink="http://www.w3.org/1999/xlink" width="500" zoomAndPan="magnify" viewBox="0 0 375 374.999991" height="500" preserveAspectRatio="xMidYMid meet" version="1.0"><defs><clipPath id="eac76e7711"><path d="M 64.832031 64.832031 L 310.082031 64.832031 L 310.082031 310.082031 L 64.832031 310.082031 Z M 64.832031 64.832031 " clip-rule="nonzero"/></clipPath><clipPath id="d7e1799989"><path d="M 64.832031 139.832031 L 64.832031 235.167969 C 64.832031 276.589844 98.410156 310.167969 139.832031 310.167969 L 235.167969 310.167969 C 276.589844 310.167969 310.167969 276.589844 310.167969 235.167969 L 310.167969 139.832031 C 310.167969 98.410156 276.589844 64.832031 235.167969 64.832031 L 139.832031 64.832031 C 98.410156 64.832031 64.832031 98.410156 64.832031 139.832031 Z M 64.832031 139.832031 " clip-rule="nonzero"/></clipPath></defs><g clip-path="url(#eac76e7711)"><g clip-path="url(#d7e1799989)"><path fill="#ffffff" d="M 187.496094 64.832031 C 119.816406 64.832031 64.832031 119.816406 64.832031 187.496094 C 64.832031 255.175781 119.816406 310.164062 187.496094 310.164062 C 255.175781 310.164062 310.164062 255.175781 310.164062 187.496094 C 310.164062 119.816406 255.175781 64.832031 187.496094 64.832031 Z M 187.496094 70.164062 C 252.367188 70.164062 304.828125 122.628906 304.828125 187.496094 C 304.828125 252.367188 252.367188 304.828125 187.496094 304.828125 C 122.628906 304.828125 70.164062 252.367188 70.164062 187.496094 C 70.164062 122.628906 122.628906 70.164062 187.496094 70.164062 Z M 187.496094 70.164062 " fill-opacity="1" fill-rule="nonzero"/></g></g></svg>