<svg xmlns="http://www.w3.org/2000/svg" xmlns:xlink="http://www.w3.org/1999/xlink" width="500" zoomAndPan="magnify" viewBox="0 0 375 374.999991" height="500" preserveAspectRatio="xMidYMid meet" version="1.0"><defs><clipPath id="fb542870cf"><path d="M 66.867188 66.867188 L 308.367188 66.867188 L 308.367188 308.367188 L 66.867188 308.367188 Z M 66.867188 66.867188 " clip-rule="nonzero"/></clipPath></defs><g clip-path="url(#fb542870cf)"><path fill="#f6f4f1" d="M 187.496094 66.867188 C 121.019531 66.867188 66.867188 121.019531 66.867188 187.496094 C 66.867188 253.972656 121.019531 308.121094 187.496094 308.121094 C 253.972656 308.121094 308.121094 253.972656 308.121094 187.496094 C 308.121094 121.019531 253.972656 66.867188 187.496094 66.867188 Z M 251.773438 155.359375 L 154.039062 231.742188 C 152.714844 232.839844 150.957031 233.28125 149.414062 233.28125 C 148.753906 233.28125 148.3125 233.28125 147.652344 233.0625 C 145.453125 232.621094 143.472656 231.082031 142.589844 228.878906 L 121.019531 183.09375 C 119.257812 179.351562 120.800781 174.730469 124.761719 172.96875 C 128.503906 171.207031 133.125 172.746094 134.886719 176.710938 L 152.277344 213.691406 L 242.527344 143.25 C 245.828125 140.609375 250.671875 141.269531 253.3125 144.570312 C 255.734375 147.875 255.074219 152.714844 251.773438 155.359375 Z M 251.773438 155.359375 " fill-opacity="1" fill-rule="nonzero"/></g></svg>