<svg xmlns="http://www.w3.org/2000/svg" xmlns:xlink="http://www.w3.org/1999/xlink" width="500" zoomAndPan="magnify" viewBox="0 0 375 374.999991" height="500" preserveAspectRatio="xMidYMid meet" version="1.0"><defs><clipPath id="3a84fe15c4"><path d="M 108 102.339844 L 196 102.339844 L 196 298 L 108 298 Z M 108 102.339844 " clip-rule="nonzero"/></clipPath><clipPath id="354ecec0df"><path d="M 279.289062 163.503906 L 325.507812 163.503906 L 325.507812 302.570312 L 279.289062 302.570312 Z M 279.289062 163.503906 " clip-rule="nonzero"/></clipPath><clipPath id="cceea253b4"><path d="M 206 102.339844 L 287 102.339844 L 287 183 L 206 183 Z M 206 102.339844 " clip-rule="nonzero"/></clipPath><clipPath id="5cb7c80d8b"><path d="M 9 216.511719 L 365 216.511719 L 365 337.261719 L 9 337.261719 Z M 9 216.511719 " clip-rule="nonzero"/></clipPath><clipPath id="7b356322e4"><path d="M 55 62 L 167 62 L 167 150 L 55 150 Z M 55 62 " clip-rule="nonzero"/></clipPath><clipPath id="1f999b53b4"><path d="M 50.441406 86.433594 L 161.410156 47.054688 L 186.492188 117.738281 L 75.519531 157.113281 Z M 50.441406 86.433594 " clip-rule="nonzero"/></clipPath><clipPath id="b7b9c6263b"><path d="M 50.441406 86.433594 L 161.410156 47.054688 L 186.492188 117.738281 L 75.519531 157.113281 Z M 50.441406 86.433594 " clip-rule="nonzero"/></clipPath><clipPath id="a7bc4cf6a6"><path d="M 90 86 L 153 86 L 153 129 L 90 129 Z M 90 86 " clip-rule="nonzero"/></clipPath><clipPath id="6b17201f77"><path d="M 50.441406 86.433594 L 161.410156 47.054688 L 186.492188 117.738281 L 75.519531 157.113281 Z M 50.441406 86.433594 " clip-rule="nonzero"/></clipPath><clipPath id="7c59cc95d7"><path d="M 50.441406 86.433594 L 161.410156 47.054688 L 186.492188 117.738281 L 75.519531 157.113281 Z M 50.441406 86.433594 " clip-rule="nonzero"/></clipPath><clipPath id="09a475b69c"><path d="M 241 55 L 346 55 L 346 154 L 241 154 Z M 241 55 " clip-rule="nonzero"/></clipPath><clipPath id="16c94f932a"><path d="M 250.28125 41.382812 L 353.558594 97.945312 L 317.53125 163.726562 L 214.257812 107.164062 Z M 250.28125 41.382812 " clip-rule="nonzero"/></clipPath><clipPath id="9bbe6ad013"><path d="M 353.25 97.777344 L 249.972656 41.214844 L 213.949219 106.996094 L 317.222656 163.558594 Z M 353.25 97.777344 " clip-rule="nonzero"/></clipPath><clipPath id="d03efcb0ca"><path d="M 249 82 L 310 82 L 310 131 L 249 131 Z M 249 82 " clip-rule="nonzero"/></clipPath><clipPath id="97f518b609"><path d="M 250.28125 41.382812 L 353.558594 97.945312 L 317.53125 163.726562 L 214.257812 107.164062 Z M 250.28125 41.382812 " clip-rule="nonzero"/></clipPath><clipPath id="b0e40f4311"><path d="M 353.25 97.777344 L 249.972656 41.214844 L 213.949219 106.996094 L 317.222656 163.558594 Z M 353.25 97.777344 " clip-rule="nonzero"/></clipPath></defs><g clip-path="url(#3a84fe15c4)"><path fill="#61b1e6" d="M 147.925781 177.558594 C 128.828125 177.558594 113.289062 161.824219 113.289062 142.484375 C 113.289062 123.140625 128.828125 107.40625 147.925781 107.40625 C 167.023438 107.40625 182.5625 123.140625 182.5625 142.484375 C 182.5625 161.824219 167.023438 177.558594 147.925781 177.558594 Z M 180.652344 167.695312 C 180.199219 167.367188 179.671875 167.21875 179.152344 167.226562 C 184.449219 160.402344 187.621094 151.8125 187.621094 142.484375 C 187.621094 120.34375 169.816406 102.335938 147.925781 102.335938 C 126.035156 102.335938 108.230469 120.34375 108.230469 142.484375 C 108.230469 164.617188 126.035156 182.628906 147.925781 182.628906 C 159.234375 182.628906 169.445312 177.8125 176.683594 170.113281 C 176.777344 170.773438 177.128906 171.394531 177.714844 171.816406 C 185.632812 177.488281 190.175781 185.675781 190.175781 194.285156 L 190.175781 294.652344 C 190.175781 296.050781 191.308594 297.1875 192.707031 297.1875 C 194.101562 297.1875 195.234375 296.050781 195.234375 294.652344 L 195.234375 194.285156 C 195.234375 184.015625 189.921875 174.324219 180.652344 167.695312 " fill-opacity="1" fill-rule="nonzero"/></g><path fill="#61b1e6" d="M 97.300781 246.617188 C 96.015625 246.425781 94.667969 247.453125 94.515625 248.859375 C 93.308594 259.878906 92.933594 271.632812 93.402344 283.808594 C 93.636719 289.546875 89.195312 294.410156 83.492188 294.652344 C 80.070312 294.871094 77.578125 294.160156 76.035156 292.742188 C 74.773438 291.582031 74.105469 289.847656 74.011719 287.457031 C 72.160156 240.320312 82.84375 210.503906 92.125 193.796875 C 92.804688 192.574219 92.367188 191.027344 91.148438 190.351562 C 89.941406 189.664062 88.390625 190.101562 87.710938 191.328125 C 78.105469 208.601562 67.0625 239.339844 68.949219 287.660156 C 69.113281 291.421875 70.34375 294.390625 72.613281 296.480469 C 74.972656 298.644531 78.324219 299.742188 82.578125 299.742188 C 82.945312 299.742188 83.324219 299.730469 83.710938 299.722656 C 92.191406 299.355469 98.8125 292.121094 98.460938 283.609375 C 98 271.6875 98.363281 260.179688 99.539062 249.40625 C 99.695312 248.019531 98.691406 246.765625 97.300781 246.617188 " fill-opacity="1" fill-rule="nonzero"/><path fill="#61b1e6" d="M 103.136719 223.6875 C 101.742188 223.6875 100.609375 224.824219 100.609375 226.222656 L 100.609375 294.652344 C 100.609375 296.050781 101.742188 297.1875 103.136719 297.1875 C 104.535156 297.1875 105.667969 296.050781 105.667969 294.652344 L 105.667969 226.222656 C 105.667969 224.824219 104.535156 223.6875 103.136719 223.6875 " fill-opacity="1" fill-rule="nonzero"/><path fill="#61b1e6" d="M 201.726562 189.417969 L 198.117188 189.417969 C 196.722656 189.417969 195.585938 190.554688 195.585938 191.953125 C 195.585938 193.351562 196.722656 194.488281 198.117188 194.488281 L 199.097656 194.488281 L 199.097656 294.652344 C 199.097656 296.050781 200.230469 297.1875 201.625 297.1875 C 203.019531 297.1875 204.15625 296.050781 204.15625 294.652344 L 204.15625 194.285156 C 204.15625 193.601562 204.144531 192.921875 204.234375 192.316406 C 204.339844 191.589844 204.125 190.851562 203.636719 190.292969 C 203.160156 189.742188 202.460938 189.417969 201.726562 189.417969 " fill-opacity="1" fill-rule="nonzero"/><g clip-path="url(#354ecec0df)"><path fill="#61b1e6" d="M 292.054688 171.324219 C 291.980469 171.246094 284.550781 163.566406 282.179688 163.566406 C 280.78125 163.566406 279.648438 164.707031 279.648438 166.105469 C 279.648438 167.070312 280.1875 167.914062 280.988281 168.339844 C 282.433594 169.28125 323.792969 197.679688 320.222656 287.445312 C 320.109375 290.269531 318.929688 292.867188 316.917969 294.753906 C 314.910156 296.640625 312.308594 297.605469 309.542969 297.492188 C 304.074219 297.257812 301.28125 288.929688 301.441406 283.296875 C 301.910156 271.402344 301.597656 260.0625 300.523438 249.582031 C 300.378906 248.191406 299.125 247.210938 297.746094 247.320312 C 296.355469 247.464844 295.347656 248.710938 295.488281 250.105469 C 296.542969 260.347656 296.84375 271.445312 296.378906 283.121094 C 296.132812 292.195312 301.003906 302.203125 309.324219 302.558594 C 309.546875 302.566406 309.769531 302.570312 309.988281 302.570312 C 313.867188 302.570312 317.53125 301.125 320.375 298.449219 C 323.367188 295.648438 325.109375 291.8125 325.285156 287.65625 C 327.988281 219.398438 305.628906 185.476562 292.054688 171.324219 " fill-opacity="1" fill-rule="nonzero"/></g><path fill="#61b1e6" d="M 291.097656 200.875 C 289.699219 200.875 288.566406 202.011719 288.566406 203.410156 L 288.566406 294.652344 C 288.566406 296.050781 289.699219 297.1875 291.097656 297.1875 C 292.492188 297.1875 293.625 296.050781 293.625 294.652344 L 293.625 203.410156 C 293.625 202.011719 292.492188 200.875 291.097656 200.875 " fill-opacity="1" fill-rule="nonzero"/><path fill="#61b1e6" d="M 204.332031 163.367188 L 186.996094 163.367188 C 185.601562 163.367188 184.46875 164.503906 184.46875 165.902344 C 184.46875 167.300781 185.601562 168.4375 186.996094 168.4375 L 204.332031 168.4375 C 205.726562 168.4375 206.863281 167.300781 206.863281 165.902344 C 206.863281 164.503906 205.726562 163.367188 204.332031 163.367188 " fill-opacity="1" fill-rule="nonzero"/><g clip-path="url(#cceea253b4)"><path fill="#61b1e6" d="M 246.308594 177.558594 C 227.210938 177.558594 211.671875 161.824219 211.671875 142.484375 C 211.671875 123.140625 227.210938 107.40625 246.308594 107.40625 C 265.414062 107.40625 280.949219 123.140625 280.949219 142.484375 C 280.949219 161.824219 265.414062 177.558594 246.308594 177.558594 Z M 246.308594 102.335938 C 224.417969 102.335938 206.613281 120.34375 206.613281 142.484375 C 206.613281 164.617188 224.417969 182.628906 246.308594 182.628906 C 268.199219 182.628906 286.011719 164.617188 286.011719 142.484375 C 286.011719 120.34375 268.199219 102.335938 246.308594 102.335938 " fill-opacity="1" fill-rule="nonzero"/></g><path fill="#61b1e6" d="M 105.441406 189.117188 C 99.769531 189.117188 95.15625 184.386719 95.15625 178.574219 C 95.15625 172.820312 99.769531 168.132812 105.441406 168.132812 C 111.175781 168.132812 115.84375 172.820312 115.84375 178.574219 C 115.84375 184.386719 111.175781 189.117188 105.441406 189.117188 Z M 105.441406 163.0625 C 96.980469 163.0625 90.09375 170.023438 90.09375 178.574219 C 90.09375 187.179688 96.980469 194.183594 105.441406 194.183594 C 113.96875 194.183594 120.902344 187.179688 120.902344 178.574219 C 120.902344 170.023438 113.96875 163.0625 105.441406 163.0625 " fill-opacity="1" fill-rule="nonzero"/><g clip-path="url(#5cb7c80d8b)"><path fill="#ffffff" d="M 349.714844 219.472656 C 345.691406 217.925781 341.007812 217.257812 334.074219 217.257812 C 326.484375 217.257812 320.355469 218.628906 315.328125 221.433594 C 314.4375 221.925781 313.574219 222.46875 312.738281 223.058594 C 312.492188 222.867188 312.234375 222.679688 311.972656 222.496094 C 308.496094 220.117188 304.671875 218.617188 300.503906 217.996094 C 297.910156 217.609375 295.304688 217.40625 292.683594 217.394531 C 286.699219 217.300781 281.535156 216.683594 275.777344 218.558594 C 274.890625 218.847656 269.265625 222.261719 268.929688 222.105469 C 267.367188 221.480469 265.761719 220.863281 264.117188 220.339844 C 261.40625 219.472656 258.648438 218.800781 255.84375 218.328125 L 255.679688 218.328125 C 252.773438 217.914062 249.855469 217.675781 246.921875 217.621094 C 235.296875 217.328125 223.59375 218.039062 211.882812 217.394531 C 203.730469 216.902344 194.480469 216.695312 187.164062 220.957031 L 186.625 221.28125 C 184.289062 219.960938 181.816406 218.964844 179.214844 218.296875 C 176.613281 217.628906 173.96875 217.3125 171.28125 217.351562 C 170.109375 217.351562 168.886719 217.398438 167.632812 217.507812 C 166.566406 217.597656 165.460938 217.667969 164.335938 217.71875 C 161.914062 217.816406 159.527344 218.144531 157.167969 218.699219 C 154.125 217.730469 151.007812 217.257812 147.8125 217.277344 L 147.671875 217.277344 C 139.09375 217.339844 130.5625 217.386719 122.078125 217.414062 C 113.59375 217.441406 104.992188 217.484375 96.269531 217.542969 C 93.589844 217.53125 90.949219 217.855469 88.347656 218.507812 C 85.851562 219.144531 83.523438 220.167969 81.367188 221.582031 C 80.464844 221.113281 79.546875 220.65625 78.609375 220.238281 C 73.46875 217.945312 68.082031 216.734375 62.449219 216.613281 C 61.503906 216.546875 60.550781 216.511719 59.605469 216.511719 C 55.988281 216.507812 52.433594 216.980469 48.941406 217.933594 C 45.800781 218.789062 42.71875 219.824219 39.699219 221.035156 C 36.21875 222.417969 33 224.257812 30.042969 226.550781 C 27.085938 228.84375 24.5 231.5 22.296875 234.523438 C 18.402344 239.816406 15.761719 245.671875 14.375 252.089844 C 12.96875 258.519531 12.96875 264.945312 14.375 271.371094 C 14.863281 273.648438 15.558594 275.863281 16.449219 278.015625 C 15.355469 279.179688 14.367188 280.425781 13.488281 281.757812 C 12.121094 283.820312 11.078125 286.035156 10.363281 288.40625 C 9.648438 290.773438 9.292969 293.195312 9.292969 295.671875 C 9.316406 298.921875 9.832031 302.09375 10.839844 305.183594 L 10.914062 305.417969 L 10.992188 305.652344 C 13.054688 312.007812 16.351562 317.648438 20.878906 322.566406 C 24.921875 326.882812 29.640625 330.257812 35.027344 332.699219 C 39.804688 334.851562 44.800781 336.222656 50.007812 336.808594 C 52.429688 337.085938 54.863281 337.222656 57.300781 337.226562 C 59.285156 337.226562 61.289062 337.128906 63.253906 336.9375 C 66.855469 336.625 70.410156 336.03125 73.917969 335.152344 C 78.25 334.0625 82.316406 332.34375 86.117188 330 C 89.585938 327.835938 92.664062 325.21875 95.359375 322.148438 C 95.871094 323.371094 96.480469 324.542969 97.1875 325.664062 C 98.511719 327.75 100.136719 329.566406 102.0625 331.113281 C 103.992188 332.660156 106.117188 333.855469 108.441406 334.699219 L 109.203125 334.984375 L 109.992188 335.203125 C 113.917969 336.324219 117.925781 336.886719 122.011719 336.894531 L 122.582031 336.894531 C 127.15625 336.828125 131.59375 336.011719 135.890625 334.445312 C 138.945312 333.382812 141.714844 331.820312 144.203125 329.757812 C 146.6875 327.691406 148.730469 325.253906 150.332031 322.445312 C 151.957031 324.21875 153.738281 325.820312 155.667969 327.253906 C 159.363281 329.984375 163.378906 332.128906 167.707031 333.675781 C 171.855469 335.15625 176.121094 336.121094 180.503906 336.566406 C 182.75 336.800781 185 336.917969 187.257812 336.921875 C 189.054688 336.921875 190.875 336.84375 192.660156 336.6875 L 192.953125 336.6875 C 198.421875 336.191406 203.667969 334.835938 208.691406 332.621094 C 210.734375 334.054688 212.945312 335.140625 215.328125 335.882812 C 217.710938 336.621094 220.152344 336.980469 222.648438 336.957031 L 243.101562 336.957031 C 245.648438 336.941406 248.1875 336.785156 250.714844 336.488281 C 253.367188 336.199219 256.097656 335.777344 258.820312 335.246094 C 261.605469 334.707031 264.355469 334.019531 267.070312 333.195312 C 269.046875 332.59375 270.964844 331.847656 272.828125 330.953125 C 276.117188 333.832031 280.648438 336.019531 286.621094 336.730469 L 286.953125 336.773438 L 287.296875 336.773438 C 288.234375 336.851562 289.222656 336.886719 290.417969 336.886719 C 291.199219 336.886719 292.144531 336.886719 293.261719 336.828125 C 294.683594 336.78125 296.722656 336.757812 299.296875 336.757812 C 303.117188 336.847656 306.871094 336.375 310.550781 335.339844 C 312.152344 334.847656 313.6875 334.195312 315.152344 333.386719 C 316.621094 332.574219 317.988281 331.621094 319.253906 330.527344 C 320.523438 329.433594 321.664062 328.222656 322.679688 326.890625 C 323.695312 325.558594 324.5625 324.136719 325.28125 322.625 C 325.765625 321.808594 326.320312 320.851562 326.972656 319.691406 C 327.820312 318.1875 328.71875 316.605469 329.667969 314.949219 C 330.570312 313.382812 331.472656 311.839844 332.363281 310.359375 C 333.34375 308.71875 334.089844 307.433594 334.671875 306.367188 L 344.007812 290.976562 L 344.363281 290.269531 C 345.8125 287.390625 347.148438 284.710938 348.367188 282.234375 C 349.609375 279.691406 350.824219 277.148438 351.976562 274.679688 C 353.191406 272.058594 354.367188 269.40625 355.46875 266.777344 C 356.570312 264.152344 357.664062 261.433594 358.789062 258.535156 L 358.851562 258.359375 C 359.167969 257.480469 359.5625 256.632812 360.03125 255.824219 C 362.621094 251.84375 364.167969 247.496094 364.675781 242.777344 C 365.585938 232.621094 359.570312 223.261719 349.714844 219.472656 Z M 349.714844 219.472656 " fill-opacity="1" fill-rule="nonzero"/></g><path fill="#073b4c" d="M 79.527344 276.140625 C 76.894531 273.824219 73.203125 271.992188 68.449219 270.648438 C 66.3125 270.042969 64.273438 269.195312 62.335938 268.105469 C 60.441406 267.023438 58.714844 265.722656 57.144531 264.210938 C 56.742188 263.769531 56.449219 263.265625 56.265625 262.695312 C 56.023438 262.03125 55.867188 261.34375 55.800781 260.636719 C 55.730469 259.941406 55.765625 259.246094 55.902344 258.558594 C 55.992188 257.980469 56.226562 257.46875 56.613281 257.023438 C 57.042969 256.535156 57.570312 256.195312 58.191406 256 C 58.816406 255.808594 59.441406 255.792969 60.074219 255.953125 C 61.363281 256.238281 62.503906 256.816406 63.496094 257.683594 C 64.058594 258.136719 64.53125 258.671875 64.917969 259.28125 C 65.292969 259.878906 65.628906 260.503906 65.996094 261.140625 C 66.371094 261.816406 66.871094 262.375 67.496094 262.824219 C 68.0625 263.261719 68.699219 263.519531 69.410156 263.597656 C 70.746094 263.65625 71.914062 263.683594 72.894531 263.683594 C 73.875 263.683594 74.785156 263.683594 75.628906 263.597656 C 76.476562 263.511719 77.28125 263.441406 78.054688 263.308594 L 80.714844 262.851562 C 82.136719 262.617188 83.003906 262.144531 83.351562 261.46875 C 83.746094 260.597656 84.003906 259.6875 84.125 258.734375 C 84.339844 255.925781 83.867188 253.238281 82.703125 250.671875 C 81.523438 248.011719 79.878906 245.679688 77.777344 243.664062 C 75.601562 241.570312 73.128906 239.914062 70.363281 238.695312 C 67.539062 237.433594 64.578125 236.804688 61.484375 236.816406 C 59.050781 236.582031 56.65625 236.792969 54.300781 237.445312 C 51.933594 238.09375 49.605469 238.875 47.328125 239.789062 C 45.601562 240.472656 44 241.382812 42.53125 242.519531 C 41.0625 243.652344 39.777344 244.972656 38.683594 246.46875 C 36.464844 249.449219 34.960938 252.757812 34.175781 256.386719 C 33.390625 259.953125 33.390625 263.523438 34.175781 267.089844 C 34.535156 268.835938 35.152344 270.484375 36.019531 272.042969 C 36.886719 273.601562 37.964844 274.992188 39.257812 276.21875 C 42.007812 278.945312 45.050781 281.285156 48.394531 283.242188 C 51.765625 285.210938 55.285156 286.867188 58.953125 288.210938 C 60.1875 288.515625 61.375 288.960938 62.507812 289.542969 C 63.617188 290.105469 64.683594 290.738281 65.707031 291.445312 C 66.226562 291.761719 66.667969 292.164062 67.027344 292.660156 C 67.386719 293.152344 67.636719 293.695312 67.773438 294.285156 C 68.015625 295.402344 67.582031 296.417969 66.488281 297.394531 C 65.542969 298.113281 64.488281 298.582031 63.324219 298.800781 C 62.007812 299.082031 60.683594 299.140625 59.351562 298.980469 C 57.964844 298.816406 56.628906 298.457031 55.347656 297.90625 C 54.136719 297.414062 53.09375 296.679688 52.21875 295.714844 C 51.578125 294.957031 51.011719 294.148438 50.527344 293.285156 C 50.027344 292.386719 49.382812 291.605469 48.59375 290.941406 C 47.851562 290.207031 47.074219 289.511719 46.261719 288.855469 C 45.507812 288.253906 44.683594 287.777344 43.78125 287.4375 C 42.863281 287.09375 41.914062 286.941406 40.9375 286.976562 C 39.726562 287.042969 38.570312 287.335938 37.472656 287.855469 C 35.914062 288.558594 34.421875 289.386719 33.003906 290.339844 C 31.988281 291.019531 31.125 291.859375 30.421875 292.859375 C 29.851562 293.699219 29.566406 294.628906 29.566406 295.640625 C 29.601562 296.824219 29.804688 297.976562 30.1875 299.097656 C 31.304688 302.679688 33.121094 305.859375 35.632812 308.648438 C 37.832031 311.019531 40.40625 312.875 43.351562 314.210938 C 46.203125 315.5 49.183594 316.316406 52.289062 316.660156 C 55.316406 317.015625 58.34375 317.046875 61.375 316.753906 C 63.929688 316.542969 66.453125 316.125 68.941406 315.503906 C 71.253906 314.929688 73.425781 314.015625 75.453125 312.765625 C 77.503906 311.484375 79.285156 309.898438 80.800781 308.015625 C 82.542969 305.78125 83.867188 303.320312 84.773438 300.632812 C 85.695312 297.960938 86.253906 295.214844 86.453125 292.398438 C 86.679688 289.429688 86.242188 286.5625 85.136719 283.792969 C 83.886719 280.789062 82.015625 278.238281 79.527344 276.140625 Z M 38.683594 296.480469 C 38.300781 296.132812 38.035156 295.714844 37.882812 295.226562 C 37.730469 294.734375 37.714844 294.238281 37.828125 293.738281 C 37.828125 293.625 38.019531 293.46875 38.398438 293.285156 C 38.773438 293.101562 39.03125 293.03125 39.171875 293.085938 C 40.089844 293.484375 40.761719 294.136719 41.183594 295.039062 C 41.574219 296.0625 41.78125 297.117188 41.804688 298.210938 C 40.667969 297.804688 39.628906 297.226562 38.683594 296.480469 Z M 67.007812 285.746094 C 65.117188 285.035156 63.195312 284.328125 61.25 283.695312 C 59.300781 283.0625 57.410156 282.273438 55.558594 281.5 C 53.691406 280.691406 52.097656 279.507812 50.78125 277.953125 C 52.539062 278.992188 54.417969 279.730469 56.414062 280.167969 C 58.445312 280.621094 60.453125 281.140625 62.429688 281.742188 C 64.375 282.324219 66.226562 283.125 67.980469 284.148438 C 69.859375 285.3125 71.253906 286.898438 72.167969 288.90625 C 70.644531 287.535156 68.921875 286.480469 67.007812 285.746094 Z M 75.660156 284.546875 C 74.851562 283.535156 73.957031 282.605469 72.972656 281.765625 C 72.019531 280.957031 71.011719 280.226562 69.949219 279.570312 C 68.882812 278.917969 67.816406 278.25 66.800781 277.582031 C 70.382812 278.195312 73.09375 279.332031 74.933594 280.996094 C 76.773438 282.664062 77.796875 285.066406 78.003906 288.210938 C 77.339844 286.914062 76.558594 285.691406 75.660156 284.546875 Z M 152.988281 241.09375 C 153.058594 239.578125 152.570312 238.605469 151.523438 238.164062 C 150.335938 237.695312 149.105469 237.476562 147.828125 237.503906 C 139.214844 237.566406 130.652344 237.609375 122.132812 237.636719 C 113.617188 237.667969 105.019531 237.710938 96.339844 237.765625 C 95.335938 237.757812 94.34375 237.878906 93.367188 238.121094 C 92.871094 238.273438 92.425781 238.519531 92.035156 238.863281 C 91.644531 239.207031 91.339844 239.613281 91.121094 240.085938 C 90.199219 241.867188 89.726562 243.761719 89.699219 245.765625 C 89.664062 247.515625 90.070312 249.160156 90.917969 250.691406 C 91.777344 252.199219 92.984375 253.347656 94.535156 254.136719 C 96.351562 255.042969 98.269531 255.410156 100.292969 255.242188 C 100.882812 255.242188 101.417969 255.242188 101.898438 255.199219 C 102.382812 255.15625 102.910156 255.15625 103.5 255.15625 C 105.597656 255.101562 107.257812 255.101562 108.476562 255.15625 C 109.445312 255.132812 110.328125 255.390625 111.136719 255.925781 C 111.800781 256.53125 112.191406 257.28125 112.300781 258.175781 C 112.507812 259.234375 112.714844 260.671875 112.921875 262.511719 C 112.984375 263.363281 113.070312 264.109375 113.175781 264.769531 C 113.28125 265.429688 113.382812 266.039062 113.488281 266.609375 C 113.59375 267.175781 113.667969 267.792969 113.714844 268.445312 C 113.765625 269.101562 113.792969 269.867188 113.792969 270.660156 C 113.867188 277.082031 113.902344 283.734375 113.902344 290.609375 L 113.902344 310.605469 C 113.902344 311.074219 113.902344 311.566406 113.851562 312.074219 C 113.8125 312.574219 113.832031 313.066406 113.902344 313.558594 C 113.957031 314.023438 114.113281 314.457031 114.363281 314.851562 C 114.660156 315.28125 115.054688 315.574219 115.550781 315.730469 C 117.769531 316.363281 120.03125 316.671875 122.339844 316.648438 C 124.625 316.617188 126.835938 316.210938 128.980469 315.425781 C 130.910156 314.722656 132.175781 313.699219 132.777344 312.359375 C 133.417969 310.816406 133.71875 309.210938 133.679688 307.539062 C 133.574219 303.480469 133.523438 299.640625 133.523438 296.019531 L 133.523438 274.582031 C 133.523438 270.972656 133.488281 267.125 133.417969 263.039062 C 133.417969 262.027344 133.480469 261.023438 133.601562 260.019531 C 133.707031 259.058594 133.980469 258.144531 134.417969 257.28125 C 134.820312 256.492188 135.398438 255.863281 136.152344 255.398438 C 137.105469 254.894531 138.113281 254.726562 139.175781 254.894531 C 141.164062 255.074219 143.152344 255.085938 145.140625 254.9375 C 147.183594 254.863281 149.101562 254.339844 150.898438 253.363281 C 151.898438 252.863281 152.554688 252.074219 152.859375 251 C 153.175781 249.910156 153.328125 248.800781 153.324219 247.667969 C 153.320312 246.496094 153.253906 245.328125 153.117188 244.160156 C 152.980469 243.144531 152.9375 242.121094 152.988281 241.09375 Z M 102.925781 244.445312 C 100.546875 244.753906 98.230469 244.5 95.976562 243.679688 C 97.109375 243.179688 98.277344 242.808594 99.488281 242.566406 C 100.554688 242.351562 101.632812 242.257812 102.71875 242.28125 C 103.730469 242.308594 104.738281 242.402344 105.738281 242.566406 C 106.734375 242.722656 107.714844 242.835938 108.683594 242.890625 C 106.816406 243.605469 104.898438 244.125 102.925781 244.445312 Z M 126.65625 302.65625 C 125.988281 301.660156 125.515625 300.578125 125.234375 299.410156 C 124.988281 298.332031 124.886719 297.238281 124.921875 296.132812 C 124.957031 295.003906 125.113281 293.894531 125.390625 292.804688 C 125.660156 291.6875 125.9375 290.582031 126.214844 289.472656 C 126.992188 291.59375 127.441406 293.785156 127.558594 296.039062 C 127.660156 298.292969 127.359375 300.492188 126.65625 302.632812 Z M 215.375 259.644531 C 215.304688 256.476562 215.226562 253.554688 215.121094 250.863281 C 215.011719 248.171875 214.890625 246.015625 214.757812 244.382812 C 214.613281 243.078125 214.390625 241.785156 214.089844 240.507812 C 213.976562 240.066406 213.773438 239.675781 213.484375 239.324219 C 213.195312 238.976562 212.84375 238.707031 212.433594 238.519531 C 211.1875 238.023438 209.894531 237.789062 208.558594 237.808594 C 206.835938 237.75 204.363281 237.722656 201.121094 237.722656 C 199.804688 237.652344 198.558594 237.90625 197.382812 238.488281 C 196.566406 238.929688 195.910156 239.542969 195.417969 240.328125 C 194.980469 241.058594 194.714844 241.847656 194.617188 242.691406 C 194.515625 243.515625 194.464844 244.339844 194.457031 245.171875 C 194.457031 247.328125 194.476562 249.851562 194.515625 252.746094 C 194.554688 255.636719 194.585938 258.703125 194.617188 261.945312 C 194.648438 265.230469 194.648438 268.625 194.617188 272.132812 C 194.582031 275.636719 194.496094 279.039062 194.359375 282.332031 C 194.359375 282.921875 194.324219 283.792969 194.253906 284.957031 C 194.183594 286.121094 194.132812 287.359375 194.101562 288.644531 C 194.074219 289.929688 193.996094 291.132812 193.898438 292.277344 C 193.839844 293.152344 193.699219 294.011719 193.476562 294.863281 C 193.285156 295.796875 192.777344 296.503906 191.957031 296.992188 C 191.003906 297.625 189.964844 298.042969 188.835938 298.242188 C 187.53125 298.539062 186.230469 298.523438 184.933594 298.199219 C 183.832031 297.941406 182.910156 297.386719 182.171875 296.53125 C 180.898438 295.023438 180.121094 293.292969 179.847656 291.339844 C 179.574219 289.476562 179.4375 287.601562 179.4375 285.71875 C 179.4375 282.652344 179.417969 279.320312 179.378906 275.730469 C 179.339844 272.136719 179.308594 268.5 179.28125 264.820312 C 179.234375 261.179688 179.210938 257.570312 179.210938 253.992188 C 179.210938 250.445312 179.160156 247.09375 179.160156 244.054688 C 179.160156 239.265625 175.90625 237.136719 169.398438 237.667969 C 168.019531 237.78125 166.625 237.871094 165.21875 237.929688 C 163.886719 237.972656 162.578125 238.171875 161.292969 238.519531 C 160.15625 238.808594 159.179688 239.378906 158.371094 240.230469 C 157.527344 241.289062 157.160156 242.492188 157.261719 243.84375 C 157.332031 249.828125 157.28125 255.933594 157.105469 262.148438 C 156.929688 268.367188 156.980469 274.472656 157.261719 280.457031 C 157.453125 284.722656 157.878906 288.960938 158.542969 293.179688 C 159.273438 297.5 160.710938 301.574219 162.855469 305.394531 C 164.09375 307.621094 165.738281 309.488281 167.792969 310.996094 C 169.890625 312.546875 172.171875 313.757812 174.628906 314.632812 C 177.214844 315.554688 179.875 316.15625 182.605469 316.425781 C 185.382812 316.726562 188.164062 316.753906 190.945312 316.519531 C 194.648438 316.230469 198.160156 315.257812 201.484375 313.609375 C 204.28125 312.179688 206.71875 310.285156 208.792969 307.929688 C 210.746094 305.699219 212.226562 303.1875 213.234375 300.398438 C 214.246094 297.628906 214.890625 294.773438 215.167969 291.835938 C 215.304688 290.757812 215.410156 289.0625 215.480469 286.753906 C 215.546875 284.453125 215.582031 281.785156 215.582031 278.855469 C 215.582031 275.921875 215.582031 272.734375 215.53125 269.390625 C 215.480469 266.046875 215.46875 262.808594 215.375 259.644531 Z M 176.367188 309.25 C 173.605469 308.226562 171.128906 305.921875 168.929688 302.328125 C 170.480469 303.230469 171.980469 304.089844 173.421875 304.890625 C 174.863281 305.695312 176.316406 306.410156 177.757812 307.023438 C 179.199219 307.652344 180.679688 308.160156 182.203125 308.554688 C 183.777344 308.96875 185.375 309.203125 187 309.265625 C 182.679688 310.277344 179.132812 310.273438 176.367188 309.25 Z M 274.171875 256.429688 C 273.464844 252.949219 272.542969 250.320312 271.40625 248.542969 C 270.5 247.078125 269.367188 245.820312 268 244.773438 C 266.535156 243.621094 264.96875 242.628906 263.300781 241.796875 C 261.574219 240.9375 259.792969 240.210938 257.953125 239.625 C 256.167969 239.054688 254.355469 238.609375 252.507812 238.292969 C 250.433594 238.011719 248.351562 237.851562 246.257812 237.808594 C 243.570312 237.722656 240.726562 237.710938 237.726562 237.765625 C 234.726562 237.824219 231.820312 237.957031 229.003906 238.164062 C 226.160156 238.367188 223.902344 238.617188 222.234375 238.910156 C 220.6875 239.230469 219.859375 239.777344 219.761719 240.546875 C 219.65625 241.324219 219.570312 242.253906 219.5 243.332031 C 219.386719 244.488281 219.335938 245.648438 219.347656 246.808594 C 219.3125 248.785156 219.292969 251.28125 219.292969 254.300781 C 219.292969 257.320312 219.277344 260.726562 219.242188 264.527344 C 219.210938 268.3125 219.191406 272.21875 219.191406 276.242188 C 219.191406 280.265625 219.175781 284.253906 219.144531 288.210938 C 219.113281 292.152344 219.097656 295.792969 219.09375 299.136719 L 219.09375 313.132812 C 219.132812 313.960938 219.371094 314.726562 219.804688 315.433594 C 220.289062 316.292969 221.226562 316.71875 222.648438 316.71875 L 243.101562 316.71875 C 244.90625 316.699219 246.707031 316.582031 248.5 316.371094 C 250.617188 316.140625 252.75 315.808594 254.898438 315.382812 C 256.980469 314.988281 259.039062 314.476562 261.066406 313.851562 C 262.691406 313.410156 264.199219 312.714844 265.589844 311.769531 C 267.621094 310.511719 269.34375 308.316406 270.75 305.183594 C 272.273438 301.699219 273.367188 298.085938 274.027344 294.34375 C 274.839844 290.023438 275.375 285.671875 275.636719 281.289062 C 275.925781 276.867188 275.925781 272.445312 275.636719 268.019531 C 275.402344 264.125 274.914062 260.261719 274.171875 256.429688 Z M 247.339844 242.984375 C 248.949219 242.796875 250.441406 243.136719 251.8125 244.007812 C 253.296875 245.195312 254.453125 246.648438 255.28125 248.363281 C 254.867188 248.222656 254.441406 248.058594 254.015625 247.890625 C 253.589844 247.71875 253.199219 247.5625 252.847656 247.449219 C 252.933594 247.589844 253.003906 247.734375 253.054688 247.890625 L 253.261719 248.363281 C 251.167969 247.523438 249.199219 246.742188 247.355469 246.023438 L 241.75 243.890625 C 243.558594 243.242188 245.421875 242.941406 247.339844 242.984375 Z M 243.414062 303.949219 C 242.167969 303.957031 240.929688 303.867188 239.695312 303.683594 C 239.164062 303.644531 238.742188 303.410156 238.429688 302.976562 C 238.121094 302.535156 237.921875 302.046875 237.839844 301.511719 C 237.730469 300.859375 237.660156 300.203125 237.636719 299.539062 C 237.597656 298.828125 237.585938 298.121094 237.585938 297.410156 L 237.585938 288.402344 C 237.585938 286.441406 237.601562 284.417969 237.636719 282.332031 C 237.667969 280.246094 237.703125 278.246094 237.734375 276.332031 C 237.769531 274.417969 237.820312 272.707031 237.890625 271.1875 C 237.960938 269.667969 237.996094 268.488281 237.996094 267.636719 C 238.0625 264.796875 238.117188 262.425781 238.152344 260.410156 C 238.148438 258.714844 238.328125 257.035156 238.695312 255.378906 C 238.917969 254.203125 239.453125 253.1875 240.292969 252.332031 C 241.265625 251.542969 242.375 251.144531 243.628906 251.125 C 243.777344 251.066406 243.933594 251.054688 244.089844 251.082031 C 244.242188 251.109375 244.398438 251.125 244.550781 251.125 L 245.121094 251.125 C 245.921875 251.09375 246.671875 251.273438 247.367188 251.671875 C 248.242188 252.144531 249.015625 252.742188 249.691406 253.46875 C 250.488281 254.308594 251.210938 255.210938 251.859375 256.167969 C 252.550781 257.164062 253.179688 258.199219 253.746094 259.273438 C 254.816406 261.691406 255.617188 264.195312 256.148438 266.785156 C 256.835938 269.933594 257.273438 273.117188 257.464844 276.332031 C 257.671875 279.621094 257.65625 282.902344 257.414062 286.1875 C 257.246094 289.046875 256.695312 291.828125 255.757812 294.535156 C 255.160156 296.320312 254.308594 297.976562 253.203125 299.503906 C 252.359375 300.625 251.351562 301.570312 250.183594 302.34375 C 249.183594 303.007812 248.089844 303.4375 246.90625 303.636719 C 245.75 303.832031 244.585938 303.933594 243.414062 303.949219 Z M 248.726562 312.089844 Z M 263.761719 308.128906 C 261.0625 310.90625 256.632812 312.214844 250.476562 312.046875 C 252.183594 311.992188 253.84375 311.671875 255.453125 311.089844 C 257.25 310.453125 258.871094 309.507812 260.308594 308.25 C 261.308594 307.351562 262.117188 306.308594 262.730469 305.113281 C 262.980469 304.480469 263.316406 303.898438 263.742188 303.367188 C 264.714844 302.402344 265.386719 301.261719 265.753906 299.945312 C 266.113281 298.59375 266.25 297.222656 266.164062 295.828125 C 267.285156 301.242188 266.484375 305.339844 263.761719 308.128906 Z M 342.414062 238.363281 C 340.9375 237.785156 338.148438 237.5 334.054688 237.503906 C 330.058594 237.503906 327.105469 238.035156 325.195312 239.101562 C 324.289062 239.574219 323.515625 240.210938 322.871094 241.007812 C 322.230469 241.804688 321.773438 242.695312 321.5 243.679688 C 321.296875 244.351562 320.925781 245.386719 320.390625 246.789062 C 319.855469 248.1875 319.242188 249.722656 318.554688 251.386719 C 317.886719 253.058594 317.199219 254.738281 316.488281 256.449219 C 315.777344 258.160156 315.191406 259.609375 314.710938 260.808594 C 314.46875 260.519531 314.054688 259.921875 313.464844 259.035156 C 312.875 258.148438 312.257812 257.175781 311.589844 256.117188 C 310.917969 255.058594 310.292969 254.09375 309.726562 253.183594 C 309.15625 252.277344 308.773438 251.679688 308.558594 251.386719 C 307.082031 248.992188 305.894531 246.980469 305.003906 245.347656 C 304.261719 243.992188 303.453125 242.675781 302.574219 241.402344 C 301.964844 240.507812 301.222656 239.742188 300.355469 239.101562 C 299.414062 238.496094 298.390625 238.125 297.285156 237.984375 C 295.664062 237.753906 294.035156 237.640625 292.398438 237.636719 C 290.421875 237.609375 287.886719 237.566406 284.785156 237.503906 C 282.234375 237.445312 280.859375 237.964844 280.65625 239.058594 C 280.449219 240.152344 281.046875 241.699219 282.460938 243.679688 C 283.527344 245.054688 284.871094 246.949219 286.492188 249.359375 C 288.113281 251.765625 289.910156 254.492188 291.886719 257.527344 C 293.863281 260.554688 295.886719 263.722656 297.953125 267.035156 C 300.019531 270.347656 302.050781 273.621094 304.046875 276.851562 C 302.121094 280.734375 300.296875 284.484375 298.570312 288.109375 C 296.84375 291.734375 295.230469 295.082031 293.722656 298.148438 C 292.199219 301.195312 290.855469 303.894531 289.691406 306.246094 C 288.519531 308.597656 287.59375 310.507812 286.902344 311.960938 C 286.109375 313.511719 285.769531 314.613281 285.894531 315.269531 C 286.015625 315.929688 287.058594 316.375 289.015625 316.605469 C 290.199219 316.664062 291.386719 316.664062 292.570312 316.605469 C 294.238281 316.546875 296.484375 316.519531 299.308594 316.519531 C 301.125 316.582031 302.914062 316.402344 304.675781 315.972656 C 305.320312 315.753906 305.871094 315.394531 306.335938 314.90625 C 306.804688 314.414062 307.128906 313.839844 307.316406 313.191406 C 307.761719 312.484375 308.425781 311.355469 309.304688 309.796875 C 310.179688 308.234375 311.113281 306.597656 312.09375 304.890625 C 313.074219 303.1875 314.035156 301.542969 314.988281 299.964844 C 315.9375 298.390625 316.628906 297.175781 317.078125 296.324219 L 326.269531 281.175781 C 327.691406 278.367188 328.988281 275.765625 330.164062 273.367188 C 331.339844 270.96875 332.484375 268.574219 333.597656 266.183594 C 334.703125 263.816406 335.761719 261.425781 336.777344 259.003906 C 337.792969 256.585938 338.828125 253.988281 339.882812 251.210938 C 340.648438 249.132812 341.59375 247.136719 342.726562 245.234375 C 343.621094 243.941406 344.199219 242.523438 344.460938 240.976562 C 344.578125 239.808594 343.894531 238.941406 342.414062 238.363281 Z M 283.855469 239.9375 C 283.394531 240.148438 282.917969 240.324219 282.433594 240.464844 C 282.503906 240.308594 282.5625 240.144531 282.609375 239.980469 C 282.664062 239.800781 282.757812 239.648438 282.894531 239.519531 C 283.089844 239.359375 283.3125 239.257812 283.5625 239.214844 C 284.007812 239.132812 284.453125 239.097656 284.90625 239.109375 C 284.636719 239.484375 284.285156 239.761719 283.855469 239.9375 Z M 313.34375 293.414062 C 311.023438 296.335938 309.0625 299.484375 307.457031 302.855469 C 306.035156 305.882812 305.035156 309.046875 304.457031 312.347656 C 304.359375 312.699219 304.25 313.054688 304.152344 313.402344 C 304.050781 313.75 303.441406 314 302.347656 314.113281 C 301.25 314.226562 300.859375 314.113281 300.925781 313.746094 C 300.953125 313.398438 301.039062 313.070312 301.1875 312.757812 C 303.570312 307.207031 306.308594 301.835938 309.398438 296.644531 C 312.527344 291.351562 315.882812 286.023438 319.464844 280.65625 C 318.6875 284.882812 316.648438 289.140625 313.34375 293.433594 Z M 313.34375 293.414062 " fill-opacity="1" fill-rule="nonzero"/><g clip-path="url(#7b356322e4)"><g clip-path="url(#1f999b53b4)"><g clip-path="url(#b7b9c6263b)"><path fill="#ffffff" d="M 112.441406 85.640625 C 110.023438 86.496094 107.652344 85.828125 107.046875 84.113281 C 106.886719 83.660156 107.121094 83.164062 107.578125 83.003906 C 108.03125 82.839844 108.527344 83.078125 108.6875 83.53125 C 108.925781 84.199219 110.332031 84.539062 111.859375 83.996094 C 112.3125 83.835938 112.8125 84.074219 112.972656 84.527344 C 113.132812 84.980469 112.898438 85.476562 112.441406 85.640625 Z M 165.792969 62.082031 L 106.851562 66.585938 C 106.222656 66.636719 105.296875 66.964844 104.78125 67.320312 L 56.179688 100.980469 C 55.894531 101.175781 55.800781 101.363281 55.871094 101.503906 C 55.871094 101.503906 55.867188 101.503906 55.867188 101.503906 C 55.871094 101.523438 55.878906 101.542969 55.890625 101.5625 C 55.890625 101.582031 55.902344 101.601562 55.910156 101.617188 C 55.914062 101.636719 55.921875 101.65625 55.929688 101.675781 C 55.933594 101.695312 55.941406 101.710938 55.949219 101.730469 C 55.953125 101.75 55.960938 101.769531 55.96875 101.789062 C 55.972656 101.808594 55.980469 101.824219 55.988281 101.84375 C 55.992188 101.863281 56 101.882812 56.007812 101.902344 C 56.011719 101.921875 56.019531 101.941406 56.03125 101.957031 C 56.03125 101.976562 56.042969 101.996094 56.050781 102.015625 C 56.054688 102.035156 56.0625 102.054688 56.070312 102.070312 C 56.074219 102.09375 56.082031 102.109375 56.089844 102.128906 C 56.09375 102.148438 56.101562 102.164062 56.109375 102.183594 C 56.113281 102.203125 56.121094 102.222656 56.128906 102.242188 C 56.132812 102.261719 56.140625 102.28125 56.152344 102.300781 C 56.152344 102.320312 56.160156 102.335938 56.171875 102.355469 C 56.175781 102.375 56.183594 102.394531 56.191406 102.414062 C 56.195312 102.433594 56.203125 102.449219 56.210938 102.46875 C 56.214844 102.488281 56.222656 102.507812 56.230469 102.527344 C 56.234375 102.546875 56.242188 102.5625 56.25 102.582031 C 56.253906 102.601562 56.261719 102.621094 56.273438 102.640625 C 56.273438 102.660156 56.28125 102.675781 56.292969 102.695312 C 56.296875 102.714844 56.304688 102.734375 56.3125 102.753906 C 56.335938 102.898438 56.511719 103.007812 56.839844 103.039062 L 80.578125 105.246094 L 107.460938 87.40625 L 85.46875 105.703125 L 94.773438 131.925781 C 93.863281 132.71875 93.472656 134.011719 93.902344 135.21875 C 94.140625 135.890625 94.601562 136.417969 95.164062 136.765625 C 93.089844 139.375 92.789062 144.609375 94.699219 149.984375 L 108.296875 145.15625 C 106.390625 139.78125 102.859375 135.90625 99.605469 135.1875 C 99.820312 134.5625 99.847656 133.867188 99.609375 133.195312 C 99.179688 131.988281 98.0625 131.226562 96.855469 131.1875 L 87.890625 105.929688 L 119.597656 108.878906 C 120.226562 108.9375 121.097656 108.628906 121.542969 108.1875 L 166.578125 64.097656 C 166.8125 63.867188 166.882812 63.671875 166.808594 63.542969 C 166.800781 63.523438 166.796875 63.503906 166.789062 63.488281 C 166.78125 63.46875 166.777344 63.449219 166.765625 63.429688 C 166.761719 63.410156 166.757812 63.390625 166.746094 63.375 C 166.742188 63.355469 166.738281 63.335938 166.726562 63.316406 C 166.722656 63.296875 166.714844 63.277344 166.707031 63.261719 C 166.703125 63.242188 166.695312 63.222656 166.6875 63.203125 C 166.679688 63.183594 166.675781 63.164062 166.667969 63.148438 C 166.660156 63.128906 166.65625 63.109375 166.644531 63.089844 C 166.640625 63.070312 166.636719 63.050781 166.625 63.035156 C 166.621094 63.015625 166.617188 62.996094 166.605469 62.976562 C 166.601562 62.957031 166.59375 62.9375 166.585938 62.917969 C 166.582031 62.902344 166.574219 62.882812 166.566406 62.863281 C 166.5625 62.84375 166.554688 62.824219 166.546875 62.804688 C 166.539062 62.785156 166.535156 62.765625 166.527344 62.75 C 166.519531 62.730469 166.515625 62.710938 166.503906 62.691406 C 166.5 62.671875 166.496094 62.652344 166.484375 62.636719 C 166.480469 62.617188 166.476562 62.597656 166.464844 62.578125 C 166.460938 62.558594 166.453125 62.539062 166.445312 62.523438 C 166.4375 62.503906 166.433594 62.484375 166.425781 62.464844 C 166.417969 62.445312 166.414062 62.425781 166.40625 62.410156 C 166.398438 62.390625 166.394531 62.371094 166.382812 62.351562 C 166.378906 62.332031 166.375 62.3125 166.363281 62.296875 C 166.328125 62.144531 166.136719 62.058594 165.792969 62.082031 " fill-opacity="1" fill-rule="nonzero"/></g></g></g><g clip-path="url(#a7bc4cf6a6)"><g clip-path="url(#6b17201f77)"><g clip-path="url(#7c59cc95d7)"><path fill="#ffffff" d="M 120.398438 111.132812 L 90.972656 108.394531 L 97.832031 127.71875 C 104.390625 129.050781 114.886719 127.773438 125.996094 123.832031 C 142.980469 117.804688 154.953125 107.84375 152.730469 101.585938 L 147.230469 86.078125 L 122.34375 110.441406 C 121.894531 110.882812 121.023438 111.191406 120.398438 111.132812 " fill-opacity="1" fill-rule="nonzero"/></g></g></g><g clip-path="url(#09a475b69c)"><g clip-path="url(#16c94f932a)"><g clip-path="url(#9bbe6ad013)"><path fill="#ffffff" d="M 292.164062 87.113281 C 294.417969 88.34375 296.863281 88.058594 297.738281 86.464844 C 297.96875 86.042969 297.8125 85.515625 297.390625 85.285156 C 296.96875 85.054688 296.441406 85.207031 296.207031 85.628906 C 295.867188 86.25 294.425781 86.363281 293.003906 85.582031 C 292.582031 85.351562 292.050781 85.507812 291.820312 85.929688 C 291.589844 86.351562 291.742188 86.878906 292.164062 87.113281 Z M 243.253906 55.351562 L 300.722656 69.195312 C 301.335938 69.339844 302.199219 69.8125 302.648438 70.25 L 345.265625 111.222656 C 345.515625 111.460938 345.578125 111.664062 345.488281 111.792969 C 345.480469 111.808594 345.472656 111.828125 345.460938 111.84375 C 345.453125 111.863281 345.441406 111.878906 345.429688 111.898438 C 345.421875 111.914062 345.414062 111.933594 345.402344 111.949219 C 345.394531 111.96875 345.382812 111.984375 345.371094 112.003906 C 345.367188 112.023438 345.355469 112.039062 345.34375 112.054688 C 345.335938 112.074219 345.328125 112.089844 345.3125 112.105469 C 345.308594 112.128906 345.296875 112.144531 345.285156 112.160156 C 345.277344 112.179688 345.269531 112.195312 345.257812 112.214844 C 345.25 112.234375 345.238281 112.25 345.226562 112.265625 C 345.222656 112.285156 345.210938 112.304688 345.199219 112.320312 C 345.191406 112.339844 345.179688 112.355469 345.167969 112.371094 C 345.164062 112.390625 345.152344 112.40625 345.140625 112.425781 C 345.136719 112.445312 345.125 112.460938 345.113281 112.476562 C 345.105469 112.496094 345.09375 112.515625 345.082031 112.53125 C 345.078125 112.550781 345.066406 112.566406 345.054688 112.582031 C 345.046875 112.601562 345.035156 112.621094 345.027344 112.636719 C 345.019531 112.65625 345.007812 112.671875 344.996094 112.6875 C 344.992188 112.707031 344.980469 112.726562 344.96875 112.742188 C 344.960938 112.761719 344.949219 112.777344 344.9375 112.796875 C 344.933594 112.816406 344.921875 112.832031 344.910156 112.847656 C 344.902344 112.867188 344.890625 112.882812 344.878906 112.902344 C 344.875 112.921875 344.863281 112.9375 344.851562 112.953125 C 344.804688 113.09375 344.613281 113.171875 344.285156 113.152344 L 320.5 111.546875 L 296.800781 89.652344 L 315.597656 111.21875 L 302.230469 135.621094 C 303.003906 136.550781 303.183594 137.890625 302.566406 139.011719 C 302.222656 139.636719 301.6875 140.082031 301.074219 140.335938 C 302.707031 143.242188 302.167969 148.460938 299.429688 153.460938 L 286.773438 146.527344 C 289.511719 141.527344 293.617188 138.265625 296.941406 138.074219 C 296.828125 137.421875 296.914062 136.730469 297.257812 136.105469 C 297.871094 134.980469 299.097656 134.410156 300.292969 134.5625 L 313.167969 111.054688 L 281.398438 108.914062 C 280.769531 108.875 279.957031 108.429688 279.585938 107.921875 L 242.15625 57.214844 C 241.960938 56.953125 241.925781 56.75 242.019531 56.632812 C 242.027344 56.617188 242.035156 56.597656 242.046875 56.582031 C 242.054688 56.5625 242.0625 56.542969 242.078125 56.527344 C 242.085938 56.507812 242.09375 56.492188 242.105469 56.476562 C 242.113281 56.457031 242.121094 56.4375 242.132812 56.421875 C 242.144531 56.402344 242.152344 56.386719 242.164062 56.367188 C 242.171875 56.351562 242.179688 56.332031 242.191406 56.316406 C 242.199219 56.296875 242.207031 56.28125 242.222656 56.261719 C 242.230469 56.246094 242.238281 56.226562 242.25 56.210938 C 242.257812 56.191406 242.265625 56.175781 242.277344 56.15625 C 242.285156 56.140625 242.296875 56.121094 242.308594 56.105469 C 242.316406 56.085938 242.324219 56.070312 242.335938 56.050781 C 242.34375 56.035156 242.351562 56.015625 242.367188 56 C 242.375 55.980469 242.382812 55.964844 242.394531 55.945312 C 242.402344 55.929688 242.410156 55.910156 242.421875 55.894531 C 242.433594 55.875 242.441406 55.855469 242.453125 55.839844 C 242.460938 55.824219 242.46875 55.804688 242.480469 55.789062 C 242.488281 55.769531 242.496094 55.75 242.511719 55.734375 C 242.519531 55.71875 242.527344 55.699219 242.539062 55.683594 C 242.546875 55.664062 242.554688 55.644531 242.566406 55.628906 C 242.578125 55.609375 242.585938 55.59375 242.597656 55.578125 C 242.605469 55.558594 242.613281 55.539062 242.625 55.523438 C 242.632812 55.503906 242.640625 55.488281 242.65625 55.472656 C 242.714844 55.328125 242.917969 55.273438 243.253906 55.351562 " fill-opacity="1" fill-rule="nonzero"/></g></g></g><g clip-path="url(#d03efcb0ca)"><g clip-path="url(#97f518b609)"><g clip-path="url(#b0e40f4311)"><path fill="#ffffff" d="M 280.25 111.011719 L 309.734375 112.996094 L 299.882812 130.980469 C 293.195312 131.253906 283.039062 128.316406 272.699219 122.65625 C 256.890625 113.996094 246.660156 102.257812 249.851562 96.433594 L 257.753906 82 L 278.4375 110.019531 C 278.8125 110.527344 279.621094 110.96875 280.25 111.011719 " fill-opacity="1" fill-rule="nonzero"/></g></g></g></svg>