<svg xmlns="http://www.w3.org/2000/svg" xmlns:xlink="http://www.w3.org/1999/xlink" width="500" zoomAndPan="magnify" viewBox="0 0 375 374.999991" height="500" preserveAspectRatio="xMidYMid meet" version="1.0"><defs><clipPath id="56d4c7d53d"><path d="M 131.25 131.25 L 243.75 131.25 L 243.75 243.75 L 131.25 243.75 Z M 131.25 131.25 " clip-rule="nonzero"/></clipPath><clipPath id="fea3446c06"><path d="M 187.5 131.25 C 156.433594 131.25 131.25 156.433594 131.25 187.5 C 131.25 218.566406 156.433594 243.75 187.5 243.75 C 218.566406 243.75 243.75 218.566406 243.75 187.5 C 243.75 156.433594 218.566406 131.25 187.5 131.25 Z M 187.5 131.25 " clip-rule="nonzero"/></clipPath><clipPath id="f003f0d280"><path d="M 124.113281 131.25 L 182.613281 131.25 L 182.613281 243.75 L 124.113281 243.75 Z M 124.113281 131.25 " clip-rule="nonzero"/></clipPath></defs><g clip-path="url(#56d4c7d53d)"><g clip-path="url(#fea3446c06)"><path fill="#ffffff" d="M 131.25 131.25 L 243.75 131.25 L 243.75 243.75 L 131.25 243.75 Z M 131.25 131.25 " fill-opacity="1" fill-rule="nonzero"/></g></g><g clip-path="url(#f003f0d280)"><path fill="#000000" d="M 182.621094 133.554688 L 182.621094 241.4375 C 182.625 241.753906 182.566406 242.054688 182.449219 242.347656 C 182.328125 242.640625 182.160156 242.894531 181.9375 243.121094 C 181.714844 243.34375 181.457031 243.511719 181.167969 243.632812 C 180.875 243.753906 180.574219 243.8125 180.261719 243.808594 C 178.421875 243.808594 176.585938 243.714844 174.753906 243.535156 C 172.925781 243.355469 171.109375 243.082031 169.304688 242.722656 C 167.5 242.363281 165.71875 241.914062 163.957031 241.378906 C 162.199219 240.84375 160.46875 240.222656 158.769531 239.515625 C 157.070312 238.808594 155.410156 238.023438 153.789062 237.152344 C 152.164062 236.285156 150.589844 235.335938 149.0625 234.3125 C 147.53125 233.289062 146.058594 232.191406 144.636719 231.019531 C 143.214844 229.851562 141.851562 228.613281 140.550781 227.308594 C 139.25 226.003906 138.019531 224.640625 136.851562 223.214844 C 135.683594 221.789062 134.589844 220.308594 133.570312 218.777344 C 132.546875 217.242188 131.601562 215.664062 130.738281 214.039062 C 129.871094 212.410156 129.085938 210.746094 128.378906 209.042969 C 127.675781 207.339844 127.058594 205.605469 126.523438 203.84375 C 125.992188 202.078125 125.542969 200.292969 125.183594 198.484375 C 124.828125 196.675781 124.558594 194.851562 124.375 193.019531 C 124.195312 191.183594 124.105469 189.34375 124.105469 187.5 C 124.105469 185.65625 124.195312 183.816406 124.375 181.980469 C 124.558594 180.148438 124.828125 178.324219 125.183594 176.515625 C 125.542969 174.707031 125.992188 172.921875 126.523438 171.15625 C 127.058594 169.394531 127.675781 167.660156 128.378906 165.957031 C 129.085938 164.253906 129.871094 162.589844 130.738281 160.960938 C 131.601562 159.335938 132.546875 157.757812 133.570312 156.222656 C 134.589844 154.691406 135.683594 153.210938 136.851562 151.785156 C 138.019531 150.359375 139.25 148.996094 140.550781 147.691406 C 141.851562 146.386719 143.214844 145.148438 144.636719 143.980469 C 146.058594 142.808594 147.53125 141.710938 149.0625 140.6875 C 150.589844 139.664062 152.164062 138.714844 153.789062 137.847656 C 155.410156 136.976562 157.070312 136.191406 158.769531 135.484375 C 160.46875 134.777344 162.199219 134.15625 163.957031 133.621094 C 165.71875 133.085938 167.5 132.636719 169.304688 132.277344 C 171.109375 131.917969 172.925781 131.644531 174.753906 131.464844 C 176.585938 131.285156 178.421875 131.191406 180.261719 131.191406 C 180.574219 131.191406 180.875 131.25 181.164062 131.367188 C 181.453125 131.488281 181.710938 131.65625 181.933594 131.878906 C 182.152344 132.101562 182.324219 132.355469 182.445312 132.648438 C 182.5625 132.9375 182.621094 133.238281 182.621094 133.554688 Z M 182.621094 133.554688 " fill-opacity="1" fill-rule="nonzero"/></g></svg>